<svg width="40" height="40" viewBox="0 0 40 40" fill="none" xmlns="http://www.w3.org/2000/svg">
<path d="M19.9133 24.7142L17.5563 27.0712L10.4852 20.0001L17.5563 12.9291L19.9133 15.2861L16.8659 18.3335H29.4278V21.6668H16.8659L19.9133 24.7142Z" fill="#B3328C"/>
<path fill-rule="evenodd" clip-rule="evenodd" d="M7.03621 32.9637C-0.123399 25.8041 -0.123399 14.1961 7.03621 7.03646C14.1958 -0.123155 25.8038 -0.123155 32.9635 7.03646C40.1231 14.1961 40.1231 25.8041 32.9635 32.9637C25.8038 40.1233 14.1958 40.1233 7.03621 32.9637ZM9.39323 30.6067C3.53537 24.7488 3.53537 15.2513 9.39323 9.39348C15.2511 3.53561 24.7486 3.53561 30.6064 9.39348C36.4643 15.2513 36.4643 24.7488 30.6064 30.6067C24.7486 36.4645 15.2511 36.4645 9.39323 30.6067Z" fill="#B3328C"/>
</svg>
