<svg width="40" height="40" viewBox="0 0 40 40" fill="none" xmlns="http://www.w3.org/2000/svg">
<path d="M20.0866 24.7142L22.4436 27.0712L29.5147 20.0001L22.4436 12.9291L20.0866 15.2861L23.134 18.3335H10.5721V21.6668H23.134L20.0866 24.7142Z" fill="#68044B"/>
<path fill-rule="evenodd" clip-rule="evenodd" d="M32.9637 32.9637C40.1233 25.8041 40.1233 14.1961 32.9637 7.03646C25.8041 -0.123155 14.1961 -0.123155 7.03646 7.03646C-0.123155 14.1961 -0.123155 25.8041 7.03646 32.9637C14.1961 40.1233 25.8041 40.1233 32.9637 32.9637ZM30.6067 30.6067C36.4645 24.7488 36.4645 15.2513 30.6067 9.39348C24.7488 3.53561 15.2513 3.53561 9.39348 9.39348C3.53561 15.2513 3.53561 24.7488 9.39348 30.6067C15.2513 36.4645 24.7488 36.4645 30.6067 30.6067Z" fill="#68044B"/>
</svg>
