<svg width="96" height="26" viewBox="0 0 96 26" fill="none" xmlns="http://www.w3.org/2000/svg">
<path d="M91.9187 11.4029V7.23968H87.7121V11.4029H85.4125V1.45587H87.7121V5.42351H91.9187V1.45587H94.2463V11.4029H91.9187ZM42.253 1.45587V7.68674C42.253 8.38527 42.3651 8.97204 42.5615 9.44704C42.7578 9.92204 43.0382 10.3132 43.4308 10.6206C43.7954 10.9279 44.2441 11.1514 44.7769 11.2911C45.3098 11.4309 45.8987 11.5147 46.5437 11.5147C47.1887 11.5147 47.7776 11.4309 48.2824 11.2911C48.7872 11.1514 49.2079 10.9279 49.5724 10.6206C49.909 10.3132 50.1894 9.92204 50.3857 9.44704C50.582 8.97204 50.6661 8.35733 50.6661 7.68674V1.45587H48.5068V7.60292C48.5068 8.21762 48.3385 8.7485 48.03 9.11174C47.7215 9.50292 47.2167 9.67056 46.5437 9.67056C45.8706 9.67056 45.3939 9.47497 45.0574 9.11174C44.7489 8.7485 44.5806 8.24557 44.5806 7.60292V1.45587H42.253ZM35.6066 11.4029V3.32792H32.8863V1.48381H40.6264V2.37793C40.6264 2.90881 40.1777 3.35587 39.6449 3.35587H37.8781V11.4309H35.6066V11.4029ZM72.6525 1.45587H74.9521V11.4029H72.6525V1.45587ZM64.9685 6.76469L65.0526 6.87645L67.9973 10.6485C68.3618 11.1235 68.9227 11.4029 69.5397 11.4029H71.3625L67.1559 6.06616L67.0998 5.98233L67.1559 5.89851L70.6334 1.45587H68.2496L65.0807 5.73086L64.9966 5.84263V5.67498V1.45587H62.697V11.4029H64.9966V6.96027L64.9685 6.76469ZM59.6682 11.4029C58.9952 11.4029 58.3502 11.0397 57.9856 10.4529L56.1908 7.49116H55.041V11.375H52.7414V1.45587H56.8638C57.9295 1.45587 58.7428 1.73528 59.3317 2.26616C59.8926 2.79704 60.201 3.55145 60.201 4.47351C60.201 4.94851 60.0889 5.42351 59.8365 5.87057C59.5841 6.31763 59.1634 6.7088 58.5465 6.98821L58.4062 7.0441L61.2106 11.375H59.6682V11.4029ZM55.041 6.01027H56.3871C56.8638 6.01027 57.2284 5.87057 57.4808 5.6191C57.7332 5.36763 57.8454 5.03234 57.8454 4.61322C57.8454 4.1941 57.7332 3.85881 57.4808 3.60734C57.2564 3.35586 56.8638 3.21616 56.3871 3.21616H55.041V6.01027ZM76.8311 10.9838V9.0838C77.5602 9.4191 78.5137 9.75439 79.4952 9.75439C80.617 9.75439 81.1779 9.36321 81.1779 8.63674C81.1779 7.77057 80.4207 7.68674 78.8783 7.01615C77.8406 6.54115 76.8311 5.84263 76.8311 4.16616C76.8311 2.23822 78.3174 1.31616 80.3646 1.31616C81.4583 1.31616 82.3838 1.56763 82.9166 1.76322V3.60734C82.3838 3.35586 81.4583 3.07645 80.5329 3.07645C79.5233 3.07645 79.0465 3.43969 79.0465 4.08234C79.0465 4.75292 79.6074 4.97645 80.645 5.33969C81.9631 5.98233 83.5055 6.28969 83.5055 8.52498C83.5055 10.4529 81.9631 11.5147 79.8879 11.5147C78.6259 11.5426 77.6163 11.3191 76.8311 10.9838ZM80.4487 24.3676V14.4206H86.7025V15.3147C86.7025 15.8456 86.2819 16.2647 85.749 16.2647H82.7764V18.3882H86.1136V20.0367H82.7764V22.4676H86.7025V24.3117L80.4487 24.3676ZM57.6491 24.3676V14.4206H58.7708C59.4158 14.4206 59.9487 14.9514 59.9487 15.5941V22.5514H63.6224V24.3397H57.6491V24.3676ZM43.4028 24.3676V14.4485H45.7024V24.3676H43.4028ZM54.7325 24.3676C54.0594 24.3676 53.4144 24.0044 53.0499 23.4176L51.2551 20.4558H50.1053V24.3676H47.8057V14.4485H51.9001C52.9657 14.4485 53.779 14.7279 54.3679 15.2588C54.9288 15.7897 55.2373 16.5441 55.2373 17.4661C55.2373 17.9411 55.1251 18.4161 54.8727 18.8632C54.6203 19.3103 54.1997 19.7014 53.5827 19.9808L53.4425 20.0367L56.2469 24.3676H54.7325ZM50.1053 18.975H51.4514C51.9281 18.975 52.2927 18.8353 52.5451 18.5838C52.7975 18.3323 52.9096 17.997 52.9096 17.5779C52.9096 17.1588 52.7975 16.8235 52.5451 16.572C52.3207 16.3206 51.9281 16.1809 51.4514 16.1809H50.1053V18.975ZM38.3268 14.4206H35.6907L31.9048 24.3676H33.5594C33.98 24.3676 34.3446 24.0882 34.4848 23.697L34.8774 22.5235H38.9158L39.5047 24.3676H42.0006L38.3268 14.4206ZM35.4664 20.7353L36.3638 18.2206C36.5601 17.6617 36.7564 17.047 36.8966 16.6279H36.9246C37.0368 17.075 37.2331 17.6338 37.4575 18.2206L38.3268 20.7353H35.4664ZM88.5254 23.9485V22.0485C89.2545 22.3838 90.208 22.7191 91.1895 22.7191C92.3113 22.7191 92.8722 22.3279 92.8722 21.6014C92.8722 20.7353 92.115 20.6514 90.5726 19.9808C89.5349 19.5058 88.5254 18.8073 88.5254 17.1309C88.5254 15.2029 90.0117 14.2809 92.0589 14.2809C93.1526 14.2809 94.0781 14.5323 94.6109 14.7279V16.572C94.0781 16.3206 93.1526 16.0411 92.2272 16.0411C91.2176 16.0411 90.7408 16.4044 90.7408 17.047C90.7408 17.7176 91.3017 17.9411 92.3393 18.3044C93.6574 18.947 95.1998 19.2544 95.1998 21.4897C95.1998 23.4176 93.6574 24.4794 91.5821 24.4794C90.3202 24.5073 89.3106 24.2838 88.5254 23.9485ZM69.5397 14.4485H70.9699C71.6429 14.4485 72.288 14.8117 72.6245 15.3706L75.4008 19.8132C75.7093 20.3161 76.0739 20.9588 76.2982 21.4338H76.3543C76.3263 20.9867 76.2982 20.372 76.2982 19.925V14.4485H78.3174V24.3676H75.7934L72.4001 19.0029C72.0917 18.5 71.7551 17.9132 71.5308 17.4661H71.5027C71.5308 17.8853 71.5588 18.4161 71.5588 18.8911V24.3676H69.5397V14.4485ZM65.1087 14.4485H67.4083V24.3676H65.1087V14.4485Z" fill="#B3328C"/>
<path d="M14.6298 0.310387C21.0238 0.980974 26.0156 6.37361 26.0156 12.9118C26.0156 19.9251 20.3227 25.5971 13.2837 25.5971C6.24466 25.5971 0.551758 19.9251 0.551758 12.9118C0.551758 5.89862 6.24466 0.226562 13.2837 0.226562C13.7324 0.226562 14.1811 0.254504 14.6298 0.310387ZM15.2748 24.703C21.809 23.6133 26.24 17.4383 25.1182 10.928C24.1927 5.50744 19.7618 1.5398 14.5457 1.00892C13.48 0.897151 12.3863 0.925092 11.2926 1.12068C9.9745 1.34421 8.76861 1.76333 7.6749 2.35009C13.4519 4.30597 16.5368 7.26773 16.7611 10.2854C16.8733 12.1574 16.0039 13.5265 14.8541 14.6163L23.0149 14.0574C23.2393 14.0295 23.3234 14.3089 23.0429 14.3927L3.5805 19.9251C5.57161 22.6354 8.62839 24.4515 12.0497 24.8148C13.0874 24.9265 14.1811 24.8986 15.2748 24.703ZM9.94646 13.1913C11.0121 9.19567 9.80624 5.0045 6.88967 2.79715C2.93549 5.28391 0.635889 10.006 1.47721 14.8957C1.75764 16.5163 2.34657 17.9971 3.15984 19.3104C6.24466 18.4442 8.96492 16.8236 9.94646 13.1913Z" fill="#EAEAEA"/>
<path d="M15.275 24.7028C21.8093 23.6131 26.2402 17.4381 25.1184 10.9278C24.193 5.50725 19.7621 1.53961 14.5459 1.00873C13.4802 0.896965 12.3865 0.924906 11.2928 1.12049C9.97475 1.34402 8.76886 1.76314 7.67515 2.3499C13.4522 4.30578 16.537 7.26755 16.7614 10.2852C16.8735 12.1572 16.0042 13.5264 14.8544 14.6161L23.0152 14.0572C23.2395 14.0293 23.3236 14.3087 23.0432 14.3925L3.58074 19.9249C5.57186 22.6352 8.62864 24.4514 12.05 24.8146C13.0876 24.9264 14.1813 24.8984 15.275 24.7028ZM9.9467 13.1911C11.0124 9.19549 9.80648 5.00431 6.88992 2.79696C2.93573 5.28373 0.636138 10.0058 1.47745 14.8955C1.75789 16.5161 2.34681 17.9969 3.16009 19.3102C6.24491 18.444 8.96517 16.8234 9.9467 13.1911Z" fill="#B3328C"/>
</svg>
