<svg width="109" height="34" viewBox="0 0 109 34" fill="none" xmlns="http://www.w3.org/2000/svg">
<path d="M108.724 27.029V27.0447H106.154L99.9413 18.7188L93.7448 27.0447H91.1747L98.6483 16.9907L91.8212 7.84786H94.3755L99.9413 15.2941L105.507 7.84786H108.077L101.234 16.975L108.724 27.029ZM57.0546 7.84789H54.5003L48.9345 15.2941L43.3687 7.84789H40.7986L47.6416 16.9908L40.1522 27.0448H42.7222L48.9345 18.7188L55.131 27.0448H57.701V27.0291L50.2274 16.9751L57.0546 7.84789ZM73.6101 21.4208C73.6101 24.8769 70.9455 27.029 66.6568 27.029H58.7575V18.0433C58.7575 18.0433 54.9891 18.0433 54.7053 18.0433C55.0049 17.6191 55.7775 16.5666 56.1244 16.1267C56.2032 16.1267 58.7575 16.1267 58.7575 16.1267V7.84789H66.6568C72.5222 7.84789 72.9794 11.8381 72.9794 13.0634C72.9794 14.7129 72.0492 16.1424 70.6459 16.8965C71.0874 17.085 71.5131 17.3521 71.923 17.6977C73.0425 18.6245 73.6259 19.9127 73.6101 21.4208ZM60.9491 16.111C61.8478 16.111 66.6726 16.111 66.6726 16.111C69.3057 16.111 70.8193 14.9014 70.8193 12.8906C70.8193 10.22 68.2178 9.84297 66.6726 9.84297C66.6726 9.84297 61.8321 9.84297 60.9491 9.84297V16.111ZM71.4343 21.3737C71.4343 18.6245 68.8484 18.0433 66.6726 18.0433C66.6726 18.0433 61.8321 18.0433 60.9491 18.0433V25.0183C61.8478 25.0183 66.6726 25.0183 66.6726 25.0183C68.4385 25.0183 71.4343 24.547 71.4343 21.3737ZM93.1614 17.4306C93.1614 23.3373 89.3457 27.4532 83.8903 27.4532C78.4033 27.4532 74.5877 23.3373 74.5877 17.4306C74.5877 11.5239 78.4033 7.40802 83.8903 7.40802C89.3457 7.40802 93.1614 11.5239 93.1614 17.4306ZM90.954 17.4306C90.954 12.7178 88.0528 9.43453 83.8903 9.43453C79.712 9.43453 76.7951 12.7178 76.7951 17.4306C76.7951 22.1434 79.712 25.4267 83.8903 25.4267C88.0528 25.4267 90.954 22.1277 90.954 17.4306ZM8.91998 2.82589C9.36809 2.80413 10.0639 2.84405 10.4756 2.91301C11.6451 3.11628 13.7617 3.86039 15.1352 4.55732C15.8238 4.90578 16.4285 5.1998 16.4722 5.20706C16.5196 5.21796 17.1608 4.9312 17.9004 4.57185C20.3522 3.38128 22.6328 2.74967 24.1994 2.82955L24.9863 2.86948L24.6439 2.65894C23.489 1.95114 21.4379 1.18888 19.6965 0.822262C18.0825 0.481045 15.004 0.484678 13.3646 0.829527C11.9074 1.13442 10.8326 1.49017 9.54659 2.09635C7.99826 2.82589 7.95454 2.87309 8.91998 2.82589ZM11.4083 10.3033L12.0494 9.51564L10.8727 8.45575C8.85803 6.6372 7.56105 5.74429 6.34423 5.33411C5.34236 4.99653 5.26951 5.01832 4.44614 5.87134C2.51526 7.87499 0.912273 11.1273 0.46416 13.9404C0.103487 16.1982 0.059767 16.8261 0.183637 17.926C0.558892 21.2545 1.33125 23.5595 2.85773 25.8971C3.48434 26.8553 3.65558 27.0368 3.46979 26.5468C3.19291 25.8208 3.45159 24.0713 4.0964 22.3326C5.28047 19.1311 8.4245 13.9549 11.4083 10.3033ZM29.8718 7.37407C29.0303 6.19437 27.9883 5.11631 27.6932 5.11631C27.2123 5.11631 26.0975 5.54462 25.3142 6.03102C24.3233 6.64447 23.4052 7.37043 22.0827 8.5828L21.0699 9.51204L22.0062 10.6845C24.979 14.4123 28.2178 19.9006 29.1833 22.848C29.6314 24.2092 29.8208 25.5595 29.6715 26.2927C29.5585 26.8553 29.5585 26.8553 29.7626 26.6012C30.1633 26.0931 31.0741 24.5358 31.442 23.7337C31.9302 22.6592 32.433 21.0803 32.6698 19.8643C32.9576 18.3833 32.9321 15.2 32.6188 13.7117C32.1343 11.4104 31.1761 9.19622 29.8718 7.37407ZM16.5998 13.7952C16.2828 13.7263 13.3428 16.347 11.2298 18.583C7.51372 22.5177 5.33875 25.9733 5.33875 27.9443C5.33875 28.9279 5.75408 29.418 7.59387 30.6158C9.79071 32.046 12.3446 32.9498 14.8656 33.1894C16.975 33.3926 19.5398 33.1313 21.4926 32.5142C23.8606 31.7701 27.0848 29.8281 27.6058 28.8336C28.2907 27.5269 26.9427 24.5939 24.0136 21.0077C22.1629 18.7463 17.2191 13.9331 16.5998 13.7952Z" fill="#181616"/>
</svg>
