<svg width="93" height="35" viewBox="0 0 93 35" fill="none" xmlns="http://www.w3.org/2000/svg">
<path d="M11.5562 34.2013V23.416L19.4769 0.588135H16.1302L9.96653 18.8337L4.61169 3.74548H0.902344L8.18158 23.3043V34.2013H11.5562Z" fill="#181616"/>
<path d="M26.1147 30.0103C25.5011 30.9323 24.3576 31.7147 23.2141 31.7147C21.5129 31.7147 20.7041 30.0941 20.7041 27.6353C20.7041 24.8691 21.5965 23.025 25.7242 23.025H26.1147V30.0103ZM29.3778 29.3676V19.2809C29.3778 14.0838 27.2861 12.4632 23.493 12.4632C21.3455 12.4632 19.3654 13.3574 18.3892 14.1677L19.0307 17.1015C20.1463 16.1235 21.5965 15.2294 23.2978 15.2294C25.1664 15.2294 26.1147 16.4029 26.1147 19.225V20.5103H25.6406C19.6443 20.5103 17.3015 23.3882 17.3015 28.0265C17.3015 32.2456 19.3932 34.5368 22.4611 34.5368C24.3297 34.5368 25.529 33.7265 26.4494 32.525H26.6725C26.7004 33.0838 26.8398 33.7544 26.9793 34.2294H29.7961C29.6009 33.1956 29.3778 31.4073 29.3778 29.3676ZM36.8244 17.5485C37.5774 16.4868 38.7766 15.425 40.1711 15.425C41.4541 15.425 42.1792 15.9838 42.1792 17.5765V34.2015H45.526V17.2971C45.526 14.0279 44.0478 12.4353 41.2309 12.4353C39.2229 12.4353 37.6332 13.7485 37.0196 14.5588H36.8244V12.6868H33.5055V34.2015H36.8244V17.5485ZM55.3153 34.5088C57.0723 34.5088 58.2437 33.6985 59.192 32.497H59.4151L59.6661 34.2015H62.1483V3.74561H58.8294V13.2456C58.1879 12.7706 57.1281 12.4353 56.1241 12.4353C51.8291 12.4353 48.8449 16.3191 48.8449 24.2824C48.817 30.9323 51.1318 34.5088 55.3153 34.5088ZM58.8294 30.0382C58.2716 30.8765 57.407 31.6868 55.7336 31.6868C53.3072 31.6868 52.3869 28.6132 52.3869 23.5838C52.3869 19.1971 53.6698 15.1456 56.3193 15.1456C57.4349 15.1456 58.16 15.4809 58.8294 16.1794V30.0382ZM77.7666 32.7765L77.0135 30.2338C76.1769 30.8206 74.8102 31.6588 72.9416 31.6588C70.2921 31.6588 68.9534 29.1162 68.9534 24.2544H77.8781V22.4103C77.8781 15.1177 75.5354 12.4353 71.9655 12.4353C67.4195 12.4353 65.4951 17.4647 65.4951 24.3662C65.4951 30.9882 68.2283 34.5088 72.6348 34.5088C74.7266 34.5088 76.4 33.8382 77.7666 32.7765ZM71.9376 15.1735C73.8341 15.1735 74.4477 17.8559 74.4477 21.5162H68.9534C69.1765 17.6882 69.9016 15.1735 71.9376 15.1735ZM89.034 12.7427L86.1056 20.5382L83.3445 12.7427H79.9141L83.9581 23.1088L79.4957 34.2294H82.7588L85.994 25.3721L89.3129 34.2294H92.7713L88.3089 22.8015L92.2971 12.7427H89.034Z" fill="#181616"/>
</svg>
