<svg width="125" height="39" viewBox="0 0 125 39" fill="none" xmlns="http://www.w3.org/2000/svg">
<path d="M65.8653 9.87335C65.8653 11.2667 64.7223 12.4067 63.3253 12.4067C61.9283 12.4067 60.7853 11.2667 60.7853 9.87335C60.7853 8.48001 61.8648 7.34001 63.3253 7.34001C64.7858 7.37168 65.8653 8.51168 65.8653 9.87335ZM55.4513 14.94C55.4513 15.1617 55.4513 15.5733 55.4513 15.5733C55.4513 15.5733 54.2448 14.0217 51.673 14.0217C47.4503 14.0217 44.1165 17.2517 44.1165 21.685C44.1165 26.1183 47.3868 29.3483 51.673 29.3483C54.2765 29.3483 55.4513 27.765 55.4513 27.765V28.43C55.4513 28.7467 55.6735 28.9683 55.991 28.9683H59.1343V14.4017C59.1343 14.4017 56.245 14.4017 55.991 14.4017C55.6735 14.4017 55.4513 14.6867 55.4513 14.94ZM55.4513 24.2817C54.8798 25.1367 53.705 25.865 52.308 25.865C49.8315 25.865 47.9265 24.3133 47.9265 21.685C47.9265 19.0567 49.8315 17.505 52.308 17.505C53.6733 17.505 54.9115 18.265 55.4513 19.0883V24.2817ZM61.4838 14.4017H65.2303V28.9683H61.4838V14.4017ZM117.205 14.0217C114.633 14.0217 113.427 15.5733 113.427 15.5733V7.40335H109.68V29C109.68 29 112.57 29 112.824 29C113.141 29 113.363 28.715 113.363 28.4617V27.7967C113.363 27.7967 114.57 29.38 117.142 29.38C121.364 29.38 124.698 26.1183 124.698 21.7167C124.73 17.2833 121.396 14.0217 117.205 14.0217ZM116.602 25.8333C115.173 25.8333 114.03 25.105 113.459 24.25V19.0567C114.03 18.2967 115.3 17.4734 116.602 17.4734C119.078 17.4734 120.983 19.025 120.983 21.6533C120.983 24.2817 119.078 25.8333 116.602 25.8333ZM107.775 20.3233V29H104.029V20.7667C104.029 18.36 103.267 17.3783 101.14 17.3783C99.9965 17.3783 98.8535 17.9483 98.1233 18.8033V28.9683H94.3768V14.4017H97.3295C97.647 14.4017 97.8693 14.6867 97.8693 14.94V15.5733C98.9488 14.4333 100.409 14.0217 101.838 14.0217C103.457 14.0217 104.823 14.4967 105.934 15.415C107.267 16.4917 107.775 17.885 107.775 20.3233ZM85.328 14.0217C82.7563 14.0217 81.5498 15.5733 81.5498 15.5733V7.40335H77.8033V29C77.8033 29 80.6925 29 80.9465 29C81.264 29 81.4863 28.715 81.4863 28.4617V27.7967C81.4863 27.7967 82.6928 29.38 85.2645 29.38C89.4873 29.38 92.821 26.1183 92.821 21.7167C92.8845 17.2833 89.5825 14.0217 85.328 14.0217ZM84.7248 25.8333C83.296 25.8333 82.153 25.105 81.5815 24.25V19.0567C82.153 18.2967 83.423 17.4734 84.7248 17.4734C87.2013 17.4734 89.1063 19.025 89.1063 21.6533C89.1063 24.2817 87.2013 25.8333 84.7248 25.8333ZM74.5965 14.0217C75.7395 14.0217 76.311 14.2117 76.311 14.2117V17.6633C76.311 17.6633 73.1995 16.6183 71.2628 18.835V29.0317H67.5163V14.4017C67.5163 14.4017 70.4055 14.4017 70.6595 14.4017C70.977 14.4017 71.1993 14.6867 71.1993 14.94V15.5733C71.9295 14.75 73.4535 14.0217 74.5965 14.0217ZM35.8615 27.67C35.671 27.195 35.4805 26.6883 35.29 26.2767C34.9725 25.58 34.655 24.915 34.401 24.3133L34.3693 24.2817C31.7023 18.455 28.813 12.565 25.765 6.77002L25.638 6.54835C25.3205 5.97835 25.003 5.34502 24.7173 4.71168C24.3363 4.01502 23.9553 3.28668 23.3203 2.59002C22.082 1.03835 20.304 0.18335 18.399 0.18335C16.4623 0.18335 14.716 1.03835 13.4143 2.49502C12.8428 3.19168 12.3983 3.92002 12.0173 4.61668C11.6998 5.25002 11.3823 5.85168 11.0965 6.45335L10.9695 6.67502C7.98503 12.5017 5.06403 18.3917 2.36528 24.1867L2.33353 24.25C2.04778 24.8833 1.76203 25.5167 1.44453 26.2133C1.25403 26.625 1.06353 27.1 0.873029 27.6067C0.365029 29.0317 0.206279 30.3933 0.396779 31.7867C0.809529 34.7 2.77803 37.1383 5.44503 38.215C6.46103 38.6267 7.50878 38.8483 8.58828 38.8483C8.90578 38.8483 9.28678 38.8167 9.60428 38.785C10.8743 38.6267 12.2078 38.215 13.4778 37.455C15.0653 36.5683 16.5893 35.27 18.3038 33.4333C20.0183 35.3017 21.574 36.5683 23.1298 37.455C24.3998 38.1833 25.7333 38.6267 27.0033 38.785C27.3208 38.8167 27.7018 38.8483 28.0193 38.8483C29.0988 38.8483 30.21 38.6583 31.1625 38.215C33.893 37.1383 35.798 34.6367 36.2108 31.7867C36.5283 30.4567 36.3695 29.095 35.8615 27.67ZM18.3355 29.665C16.24 27.0367 14.8748 24.535 14.3985 22.445C14.208 21.5583 14.1763 20.7667 14.2715 20.07C14.335 19.4367 14.589 18.8983 14.9065 18.455C15.6368 17.41 16.875 16.745 18.3355 16.745C19.796 16.745 21.066 17.3783 21.7645 18.455C22.082 18.93 22.3043 19.4683 22.3995 20.07C22.5265 20.7667 22.463 21.59 22.2725 22.445C21.7963 24.535 20.431 27.005 18.3355 29.665ZM33.8295 31.5017C33.5438 33.5283 32.2103 35.27 30.3053 36.03C29.3845 36.41 28.3685 36.5367 27.3525 36.41C26.3683 36.2833 25.4158 35.9983 24.3998 35.3967C23.0028 34.6367 21.6058 33.4333 19.9548 31.6283C22.5265 28.4933 24.0823 25.6117 24.6538 23.0467C24.9395 21.8433 24.9713 20.7667 24.8443 19.7533C24.6855 18.7717 24.3363 17.885 23.7965 17.125C22.59 15.3833 20.558 14.37 18.3038 14.37C16.0495 14.37 14.0175 15.415 12.811 17.125C12.2713 17.885 11.922 18.8033 11.7633 19.7533C11.6045 20.7667 11.6363 21.875 11.9538 23.0467C12.5253 25.6117 14.1445 28.525 16.6528 31.66C15.0653 33.4333 13.6365 34.6367 12.2078 35.4283C11.1918 35.9983 10.2393 36.315 9.25503 36.4417C8.20728 36.5683 7.19128 36.41 6.30228 36.0617C4.39728 35.3017 3.03203 33.5283 2.77803 31.5333C2.65103 30.5517 2.74628 29.6017 3.12728 28.525C3.25428 28.145 3.44478 27.765 3.63528 27.29C3.92103 26.6567 4.20678 26.0233 4.52428 25.3583L4.55603 25.295C7.22303 19.5317 10.1123 13.61 13.0968 7.87835L13.2238 7.65668C13.5413 7.08668 13.8588 6.45335 14.1445 5.88335C14.462 5.25002 14.8113 4.68002 15.224 4.17335C16.0495 3.25502 17.129 2.74835 18.3355 2.74835C19.542 2.74835 20.6215 3.25502 21.447 4.17335C21.8598 4.68002 22.209 5.25002 22.5265 5.88335C22.844 6.45335 23.1615 7.08668 23.4473 7.65668L23.5743 7.87835C26.527 13.6417 29.4163 19.5633 32.0833 25.3267V25.3583C32.4008 25.9917 32.6548 26.6883 32.9723 27.29C33.1628 27.765 33.3533 28.145 33.4803 28.525C33.8613 29.5067 33.9883 30.4883 33.8295 31.5017Z" fill="#181616"/>
</svg>
