<svg width="121" height="45" viewBox="0 0 121 45" fill="none" xmlns="http://www.w3.org/2000/svg">
<path d="M63.3258 13.855H67.5485V31.4617H63.5798V29.1183C62.8495 30.5117 61.262 32.0317 58.087 32C52.3085 31.9683 51.1973 27.5667 51.1973 24.495V13.855H55.42V23.45C55.42 26.0467 56.2773 28.105 59.2618 28.0733C62.278 28.0733 63.3258 26.0783 63.3258 23.5767V13.855ZM78.661 13.3167C75.5178 13.285 73.9303 14.8367 73.1683 16.1983C73.2 15.375 73.2001 14.615 73.2001 13.855H69.2313V31.4617H73.454V21.74C73.454 19.27 74.47 17.275 77.4863 17.2433C80.439 17.2433 81.328 19.27 81.328 21.8983V31.4617H85.5508V20.8533C85.4873 17.75 84.4078 13.3483 78.661 13.3167ZM87.1065 31.4617H91.3293V13.855H87.1065V31.4617ZM87.1065 11.48H91.3293V7.71167H87.1065V11.48ZM99.9335 13.855V7.74334H95.7425V13.855H92.8215V17.085H95.7425V31.4617H99.9653V17.085H102.982L101.743 13.855H99.9335ZM116.317 13.855L112.062 25.5717L107.744 13.855H103.236L109.903 30.7967L107.014 37.6367H111.522L120.825 13.8867H116.317V13.855ZM38.3385 0.58667L43.0375 18.0033L40.3706 22.5L43.0375 26.9967L38.3385 44.4133L20.8443 39.7583L18.2408 35.23L12.9703 35.2617L0.175049 22.5L13.002 9.77L18.2725 9.80167L20.876 5.27333L38.3385 0.58667ZM9.00155 20.3467H24.3685L32.052 7.11L18.6535 10.53L9.00155 20.3467ZM32.052 37.89L24.3685 24.6533H9.00155L18.6853 34.47L32.052 37.89ZM39.5133 22.5L35.7985 9.26333L28.115 22.5L35.7985 35.7367L39.5133 22.5Z" fill="#181616"/>
</svg>
