<svg width="124" height="25" viewBox="0 0 124 25" fill="none" xmlns="http://www.w3.org/2000/svg">
<path d="M117.195 20.8152C117.195 18.9988 118.662 17.5251 120.468 17.5251C122.275 17.5251 123.74 18.9988 123.74 20.8152C123.74 22.6316 122.275 24.1043 120.468 24.1043C118.662 24.1043 117.195 22.6315 117.195 20.8152Z" fill="#181616"/>
<path d="M12.8215 12.1021C12.8215 10.0182 12.4208 8.47218 11.6198 7.46497C10.8176 6.45874 9.60267 5.95606 7.96914 5.95606H6.23148V18.6993H7.56094C9.37536 18.6993 10.7048 18.1586 11.5515 17.0733C12.3972 15.99 12.8215 14.3325 12.8215 12.102L12.8215 12.1021ZM19.0184 11.885C19.0184 15.6815 18.0032 18.6069 15.9729 20.6604C13.9427 22.7148 11.0884 23.742 7.40947 23.742H0.260742V0.992406H7.90848C11.4559 0.992406 14.1946 1.92631 16.1244 3.79313C18.0535 5.66094 19.0184 8.35694 19.0184 11.885ZM38.8203 23.7417H44.5088V0.896926H38.8203V23.7417ZM52.5 15.2205C52.5 16.677 52.6894 17.788 53.0673 18.5515C53.446 19.316 54.0805 19.6977 54.9725 19.6977C55.8551 19.6977 56.4791 19.316 56.8428 18.5515C57.2064 17.788 57.3873 16.6771 57.3873 15.2205C57.3873 13.7716 57.2036 12.6787 56.8352 11.9409C56.4658 11.2012 55.8361 10.8309 54.9431 10.8309C54.0699 10.8309 53.4459 11.1993 53.0671 11.9323C52.6892 12.6663 52.4998 13.762 52.4998 15.2205L52.5 15.2205ZM63.1769 15.2205C63.1769 17.9955 62.4534 20.1603 61.0026 21.712C59.5527 23.2647 57.5234 24.0416 54.9146 24.0416C52.4127 24.0416 50.4211 23.2476 48.9429 21.6597C47.4629 20.0718 46.7233 17.926 46.7233 15.2205C46.7233 12.454 47.4478 10.3044 48.8985 8.77171C50.3491 7.239 52.3833 6.47268 55.0026 6.47268C56.621 6.47268 58.0529 6.82777 59.2934 7.53701C60.5348 8.24626 61.4933 9.26202 62.1665 10.5853C62.8407 11.9066 63.1769 13.4527 63.1769 15.2205ZM65.4362 23.7418H71.1256V14.9988V6.77268H65.4362V23.7418ZM65.436 4.72011H71.1254V0.895996H65.436V4.72011ZM82.652 19.4136C83.4202 19.4136 84.3348 19.2175 85.402 18.8282V23.0978C84.6349 23.4367 83.9057 23.6795 83.2126 23.8232C82.5194 23.9689 81.706 24.0412 80.7751 24.0412C78.8651 24.0412 77.4883 23.5586 76.6424 22.5952C75.8007 21.6318 75.3783 20.1524 75.3783 18.1561V11.1609H73.3859V6.77417H75.3783V2.44074L81.1112 1.43832V6.77417H84.7409V11.1609H81.1112V17.7658C81.1112 18.8644 81.6253 19.4137 82.6519 19.4137L82.652 19.4136ZM95.8194 19.4136C96.5875 19.4136 97.5021 19.2175 98.5693 18.8282V23.0978C97.8032 23.4367 97.073 23.6795 96.38 23.8232C95.6859 23.9689 94.8754 24.0412 93.9425 24.0412C92.0324 24.0412 90.6556 23.5586 89.8119 22.5952C88.9681 21.6318 88.5458 20.1524 88.5458 18.1561V11.1609H86.5524V6.77417H88.5458V2.37505L94.2778 1.43832V6.77417H97.9094V11.1609H94.2778V17.7658C94.2778 18.8644 94.792 19.4137 95.8194 19.4137V19.4136ZM105.748 13.1533C105.826 12.2241 106.09 11.5434 106.541 11.1084C106.993 10.6743 107.552 10.4573 108.22 10.4573C108.95 10.4573 109.529 10.701 109.959 11.1922C110.392 11.6806 110.617 12.3346 110.635 13.1533H105.748L105.748 13.1533ZM113.771 8.47329C112.419 7.14051 110.5 6.47319 108.018 6.47319C105.409 6.47319 103.401 7.23952 101.994 8.77222C100.588 10.3049 99.8844 12.504 99.8844 15.3695C99.8844 18.1445 100.645 20.2845 102.162 21.7868C103.68 23.289 105.811 24.0411 108.557 24.0411C109.875 24.0411 111.009 23.9506 111.96 23.7708C112.905 23.5927 113.82 23.271 114.707 22.8064L113.833 18.9823C113.188 19.2469 112.575 19.4507 111.995 19.5849C111.158 19.78 110.239 19.8781 109.239 19.8781C108.143 19.8781 107.277 19.6087 106.643 19.0699C106.008 18.5301 105.67 17.7856 105.631 16.8374H115.8V14.2319C115.8 11.7253 115.124 9.80513 113.771 8.47329H113.771ZM26.5685 13.1533C26.6461 12.2241 26.9105 11.5434 27.361 11.1084C27.8127 10.6743 28.3723 10.4573 29.0419 10.4573C29.7691 10.4573 30.3488 10.701 30.7795 11.1922C31.2123 11.6806 31.4367 12.3346 31.4567 13.1533H26.5685V13.1533ZM34.5922 8.47329C33.2391 7.14051 31.3215 6.47319 28.8384 6.47319C26.2285 6.47319 24.2219 7.23952 22.8155 8.77222C21.4093 10.3049 20.7048 12.504 20.7048 15.3695C20.7048 18.1445 21.4643 20.2845 22.9833 21.7868C24.5003 23.289 26.6319 24.0411 29.3772 24.0411C30.6954 24.0411 31.8299 23.9506 32.7806 23.7708C33.7257 23.5927 34.6405 23.271 35.5287 22.8064L34.6536 18.9823C34.0087 19.2469 33.395 19.4507 32.8165 19.5849C31.9775 19.78 31.0599 19.8781 30.0597 19.8781C28.964 19.8781 28.0977 19.6087 27.4631 19.0699C26.8276 18.5301 26.4906 17.7856 26.4518 16.8374H36.6204V14.2319C36.6204 11.7253 35.9442 9.80513 34.592 8.47329" fill="#181616"/>
</svg>
