<svg width="101" height="28" viewBox="0 0 101 28" fill="none" xmlns="http://www.w3.org/2000/svg">
<path d="M78.1139 24.829C79.4995 24.9315 80.9368 25.0849 82.2711 25.1369V0.591452H78.1139V24.829ZM10.3678 15.676L4.9281 0.540598H0.924561V27.2836C2.31021 27.1302 3.74689 26.8743 5.0815 26.7215V12.1476L9.95721 26.1593C11.4971 26.0059 12.9854 25.8514 14.525 25.6994V0.540598H10.3678V15.676ZM18.6825 25.2892C22.5318 24.983 26.4832 24.6245 30.3841 24.4205V20.2785C27.8691 20.4319 25.406 20.5859 22.891 20.739V14.5003C24.4817 14.5003 26.6887 14.3983 28.5876 14.3983V10.2563C27.048 10.2563 24.6357 10.2563 22.891 10.3583V4.73345H30.3841V0.591452H18.6825V25.2892ZM33.0525 4.73345H37.4663V24.0112C38.8519 23.9092 40.2892 23.9092 41.6235 23.8578V4.6309H46.037V0.540039H33.0522V4.73345H33.0525ZM48.7576 23.8578H52.9145V14.2443H58.663V10.1538H52.9664V4.73373H60.5102V0.591732H48.757L48.7576 23.8578ZM100.901 0.540598H96.2314L93.2029 7.59742L90.4829 0.540598H85.8638L90.7398 13.1197L85.4022 25.4432C86.8389 25.5965 88.3791 25.7505 89.8158 25.9031L92.946 18.6928L95.975 26.6189C97.5657 26.8737 99.2077 27.0271 100.798 27.2831C100.798 27.2831 97.2261 17.8163 95.4097 13.2214L100.901 0.540598ZM67.3877 0.540598H63.2305V24.0112C67.08 24.1651 70.878 24.3185 74.6238 24.5745V20.4319C72.2115 20.2785 69.8 20.1257 67.3877 20.0231V0.540598Z" fill="#181616"/>
</svg>
