<svg width="66" height="71" viewBox="0 0 66 71" fill="none" xmlns="http://www.w3.org/2000/svg">
<path d="M7.40004 59.075V52.9839L4.80629 57.3427L2.18465 52.9839V59.075H0.260254V50.4412H2.77033L4.83418 53.9618L6.81435 50.4412H9.35232V59.075H7.40004ZM10.9699 50.4692H12.8943V59.103H10.9699V50.4692ZM13.7589 50.4692H20.3688V52.2853H18.0261V59.103H16.0459V52.2853H13.7589V50.4692ZM21.0381 58.9912V57.175C21.4565 57.2589 22.4047 57.4265 23.5761 57.4265C24.5523 57.4265 25.0543 57.3147 25.0543 56.728C25.0543 56.1133 24.6359 56.0295 23.2414 55.3589C21.8748 54.7442 20.8708 54.2133 20.8708 52.7324C20.8708 50.9162 21.9864 50.3015 24.106 50.3015C25.2216 50.3015 26.0025 50.3853 26.5324 50.4692V52.2853C26.0304 52.2574 25.1658 52.1177 24.1897 52.1177C23.0462 52.1177 22.7952 52.2295 22.7952 52.7324C22.7952 53.2353 23.4088 53.4589 24.357 53.878C25.7794 54.5486 26.9508 55.0795 26.9508 56.7C26.9508 58.4324 25.891 59.2147 23.5761 59.2147C22.6836 59.2147 21.8748 59.1309 21.0381 58.9912ZM28.15 56.1692V50.4692H30.0744V56.0853C30.0744 57.0633 30.6601 57.3986 31.5805 57.3986C32.473 57.3986 33.0865 57.0633 33.0865 56.0853V50.4692H35.0109V56.1692C35.0109 58.2647 33.6443 59.2147 31.5526 59.2147C29.4609 59.2147 28.15 58.2647 28.15 56.1692ZM36.6843 50.4692H40.4494C42.2065 50.4692 43.2105 51.1397 43.2105 52.6765C43.2105 53.9059 42.5133 54.325 41.8439 54.5765C42.6248 54.828 43.4336 55.2471 43.4336 56.6721C43.4336 58.1809 42.5412 59.103 40.6168 59.103H36.7122V50.4692H36.6843ZM40.1705 53.9618C40.9515 53.9618 41.2304 53.5427 41.2304 52.9839C41.2304 52.2853 40.8957 52.1177 40.1705 52.1177H38.6087V53.9618H40.1705ZM40.2821 57.4824C41.063 57.4824 41.3977 57.203 41.3977 56.4486C41.3977 55.778 41.1188 55.4986 40.3658 55.4986H38.6087V57.4824H40.2821ZM44.5492 50.4692H46.4736V59.103H44.5492V50.4692ZM47.8681 58.9912V57.175C48.2865 57.2589 49.2347 57.4265 50.4061 57.4265C51.3822 57.4265 51.8843 57.3147 51.8843 56.728C51.8843 56.1133 51.4659 56.0295 50.0714 55.3589C48.7048 54.7442 47.7008 54.2133 47.7008 52.7324C47.7008 50.9162 48.8164 50.3015 50.936 50.3015C52.0516 50.3015 52.8325 50.3853 53.3624 50.4692V52.2853C52.8604 52.2574 51.9958 52.1177 51.0197 52.1177C49.8762 52.1177 49.6252 52.2295 49.6252 52.7324C49.6252 53.2353 50.2388 53.4589 51.187 53.878C52.6094 54.5486 53.7808 55.0795 53.7808 56.7C53.7808 58.4324 52.721 59.2147 50.4061 59.2147C49.5415 59.2147 48.7048 59.1309 47.8681 58.9912ZM59.8607 59.075V55.6662H56.7929V59.075H54.8685V50.4412H56.7929V53.85H59.8607V50.4412H61.7851V59.075H59.8607ZM63.3749 50.4692H65.2992V59.103H63.3749V50.4692ZM16.4084 70.7265V64.6353L13.8147 68.9942L11.2209 64.6353V70.7265H9.24076V62.0927H11.7508L13.8147 65.5853L15.8228 62.0927H18.3607V70.7265H16.4084ZM19.6994 66.3956C19.6994 63.3221 20.8987 61.953 23.4367 61.953C25.9746 61.953 27.1739 63.3221 27.1739 66.3956C27.1739 69.4692 25.9746 70.8383 23.4367 70.8383C20.8987 70.8383 19.6994 69.4692 19.6994 66.3956ZM25.1101 66.3956C25.1101 64.6353 24.8312 63.7133 23.3809 63.7133C21.9864 63.7133 21.6517 64.6074 21.6517 66.3956C21.6517 68.1559 21.9306 69.078 23.3809 69.078C24.8312 69.078 25.1101 68.1559 25.1101 66.3956ZM27.4528 62.0927H34.0627V63.9089H31.7199V70.7265H29.7955V63.9089H27.4528V62.0927ZM34.3695 66.3956C34.3695 63.3221 35.5687 61.953 38.1067 61.953C40.6447 61.953 41.8439 63.3221 41.8439 66.3956C41.8439 69.4692 40.6447 70.8383 38.1067 70.8383C35.5687 70.8383 34.3695 69.4692 34.3695 66.3956ZM39.7801 66.3956C39.7801 64.6353 39.5012 63.7133 38.0509 63.7133C36.6285 63.7133 36.3217 64.6074 36.3217 66.3956C36.3217 68.1559 36.6006 69.078 38.0509 69.078C39.5012 69.078 39.7801 68.1559 39.7801 66.3956ZM43.1269 62.0927H46.6131C48.4538 62.0927 49.6531 62.7912 49.6531 64.8589C49.6531 66.228 48.9837 67.0662 47.896 67.3177L50.0156 70.7265H47.7566L45.9437 67.653H45.0791V70.7265H43.1547V62.0927H43.1269ZM46.5294 65.9486C47.394 65.9486 47.6729 65.5015 47.6729 64.8309C47.6729 64.1603 47.394 63.7133 46.5294 63.7133H45.107V65.9206H46.5294V65.9486ZM50.7966 70.5868V68.7706C51.2149 68.8545 52.1632 69.0221 53.3345 69.0221C54.3107 69.0221 54.8127 68.9103 54.8127 68.3236C54.8127 67.7089 54.3943 67.625 52.9998 66.9545C51.6332 66.3397 50.6292 65.8089 50.6292 64.328C50.6292 62.5118 51.7448 61.8971 53.8644 61.8971C54.98 61.8971 55.7609 61.9809 56.2908 62.0647V63.8809C55.7888 63.853 54.9242 63.7133 53.9481 63.7133C52.8046 63.7133 52.5536 63.825 52.5536 64.3C52.5536 64.803 53.1672 65.0265 54.1154 65.4456C55.5378 66.1162 56.7092 66.6471 56.7092 68.2677C56.7092 70 55.6494 70.7824 53.3345 70.7824C52.4699 70.8383 51.6054 70.7545 50.7966 70.5868Z" fill="#181616"/>
<path d="M40.9512 15.2912L32.6679 29.625L24.4125 15.2912L32.6679 0.985352L40.9512 15.2912ZM49.1787 29.625H32.64L40.9233 43.9309H57.4062L49.1787 29.625ZM7.92969 43.9309H24.4125L32.6679 29.625H16.1851L7.92969 43.9309Z" fill="#181616"/>
</svg>
