<svg width="119" height="63" viewBox="0 0 119 63" fill="none" xmlns="http://www.w3.org/2000/svg">
<path d="M54.8008 11.2016C54.769 11.2016 54.769 11.17 54.7373 11.17C54.8008 11.2016 54.769 11.17 54.8008 11.2016ZM48.2285 53.7616L48.2603 53.73H48.1968C48.1968 53.7933 48.165 53.73 48.2285 53.7616ZM64.5163 10.1883L64.4845 10.1566C64.4845 10.1566 64.4845 10.1883 64.4528 10.22C64.4845 10.1883 64.5163 10.1883 64.5163 10.1883ZM42.0055 14.8433C42.0373 14.8433 42.0373 14.8116 42.069 14.8116H42.0373C42.0373 14.8116 42.0373 14.8116 42.0055 14.8433ZM54.9595 11.1383C54.9913 11.1383 54.9595 11.1383 54.9913 11.1383H54.9595ZM47.5618 52.115C47.5618 52.115 47.5935 52.115 47.5935 52.1466C47.5935 52.1466 47.5935 52.1466 47.6253 52.115L47.5935 52.0833C47.5618 52.115 47.5618 52.115 47.5618 52.115ZM36.1 14.4316C36.1 14.4316 36.0683 14.4316 36.0683 14.4C36.0365 14.495 36.0365 14.5583 36.0048 14.6533V14.685H36.0365C36.0683 14.59 36.0683 14.5266 36.1 14.4316ZM47.6253 51.5766C47.657 51.6083 47.6253 51.6083 47.657 51.5766H47.6253ZM47.784 54.1416H47.8475C47.8158 54.11 47.8158 54.11 47.7523 54.11C47.784 54.11 47.784 54.1416 47.784 54.1416ZM35.211 16.9966C35.211 16.9966 35.211 17.0283 35.1793 17.0283C35.211 17.06 35.211 17.06 35.2428 17.0916C35.2745 16.9966 35.2745 17.0283 35.211 16.9966ZM35.0205 23.0133C34.9888 23.0766 34.9888 23.14 34.9888 23.2033L41.053 37.2C41.0848 37.2633 41.1483 37.3266 41.2118 37.3266L43.6248 37.2633C43.6883 37.2633 43.7518 37.2316 43.7835 37.1683L50.0065 22.7916C50.0383 22.7283 50.0383 22.665 49.9748 22.6016C49.943 22.5383 49.8795 22.5066 49.816 22.5066L47.022 22.6016C46.9585 22.6016 46.895 22.665 46.8633 22.7283L42.7993 32.1016L38.8623 22.95C38.8305 22.8866 38.767 22.855 38.6718 22.8233L35.1475 22.9183C35.1158 22.9183 35.0523 22.95 35.0205 23.0133ZM61.9128 9.58663C61.881 9.58663 61.881 9.58663 61.881 9.61829C61.881 9.64996 61.881 9.64996 61.8493 9.68163C61.9445 9.68163 62.008 9.71329 62.1033 9.71329C62.0715 9.68163 62.0398 9.64996 62.008 9.61829C61.9763 9.58663 61.9445 9.58663 61.9128 9.58663ZM63.7543 9.23829C63.7543 9.23829 63.786 9.23829 63.786 9.20663V9.17496C63.7543 9.17496 63.7225 9.17496 63.6908 9.14329C63.7225 9.20663 63.7543 9.20663 63.7543 9.23829ZM63.7225 9.14329L63.7543 9.11163H63.7225V9.14329ZM64.2623 9.74496C64.2623 9.77663 64.2623 9.77663 64.2305 9.80829C64.294 9.80829 64.3258 9.80829 64.3575 9.80829C64.3575 9.74496 64.3575 9.77663 64.2623 9.74496ZM63.913 8.76329C63.913 8.79496 63.913 8.79496 63.8813 8.82663C63.9448 8.79496 63.913 8.82663 63.9448 8.76329C63.913 8.76329 63.913 8.76329 63.913 8.76329ZM55.4675 11.1383C55.4358 11.1383 55.404 11.17 55.3723 11.17V11.2016C55.4358 11.2016 55.4993 11.2016 55.531 11.2333C55.531 11.2333 55.531 11.2333 55.531 11.2016C55.4993 11.1383 55.531 11.1383 55.4675 11.1383ZM55.785 11.2966C55.7533 11.265 55.7533 11.265 55.6898 11.265C55.6898 11.265 55.6898 11.2966 55.658 11.2966C55.6898 11.2966 55.7215 11.3283 55.7533 11.3283H55.785C55.785 11.2966 55.785 11.2966 55.785 11.2966ZM56.7375 10.22C56.7375 10.2833 56.7375 10.2516 56.7693 10.315L56.801 10.2833C56.7693 10.2516 56.7693 10.22 56.7375 10.22ZM56.8328 10.315L56.8645 10.2833H56.8328V10.315ZM61.7858 9.99829C62.0715 10.0616 63.2145 10.315 63.3098 10.41C63.278 10.41 63.278 10.41 63.2463 10.41C63.3733 10.4733 63.4685 10.505 63.5955 10.5366C63.6273 10.505 63.6273 10.505 63.6273 10.4416C63.6908 10.4733 63.786 10.505 63.8495 10.5366C63.7225 10.6 63.5638 10.6316 63.3098 10.6316C63.3098 10.6633 63.3098 10.6633 63.278 10.695C63.6273 10.8216 63.9448 10.6633 64.2305 10.5683C64.2623 10.6 64.294 10.6316 64.294 10.6633C64.294 10.79 64.1988 10.8533 64.1353 10.9166C64.167 10.98 64.1353 10.98 64.1988 11.0116C64.294 10.98 64.3575 10.9483 64.4528 10.9483C64.421 11.0116 64.421 11.0433 64.3893 11.1383C64.4845 11.17 64.548 11.17 64.6433 11.2016C64.7703 11.1383 64.802 11.0116 64.929 10.9166C64.929 10.885 64.929 10.8216 64.8973 10.79C64.802 10.7583 64.802 10.8533 64.6433 10.8533C64.6433 10.8216 64.6433 10.79 64.6433 10.79C64.7068 10.7266 64.7385 10.6633 64.8338 10.6316C64.8338 10.6316 64.8338 10.6 64.8655 10.6C64.8655 10.6 64.8655 10.6 64.8338 10.5683C64.6115 10.5683 64.5798 10.6316 64.4528 10.7266C64.4528 10.695 64.421 10.6633 64.421 10.6633C64.3893 10.6633 64.421 10.695 64.3575 10.6316C64.4845 10.5366 64.7068 10.4733 64.7703 10.41L64.802 10.3783C64.7385 10.315 64.548 10.315 64.421 10.315C64.4528 10.22 64.421 10.2833 64.3893 10.1566C64.4845 10.125 64.5163 10.125 64.5798 10.0616C64.4528 9.96663 64.294 9.87163 64.1353 9.87163C64.0718 9.80829 64.1353 9.77663 64.0083 9.71329C63.9448 9.74496 64.0083 9.74496 63.9448 9.74496C63.9448 9.77663 63.913 9.77663 63.9765 9.80829C63.9448 9.80829 63.913 9.80829 63.8813 9.80829C63.786 9.80829 63.8178 9.80829 63.8178 9.71329C63.7225 9.71329 63.7543 9.71329 63.7543 9.74496C63.6908 9.71329 63.659 9.68163 63.5955 9.68163C63.5955 9.64996 63.6273 9.64996 63.6273 9.61829C63.5638 9.58663 63.5955 9.58663 63.532 9.61829L63.5003 9.58663C63.5003 9.55496 63.5003 9.55496 63.5003 9.52329C63.5638 9.52329 63.6273 9.52329 63.6908 9.52329C63.6908 9.52329 63.6908 9.52329 63.6908 9.49163C63.5955 9.42829 63.4685 9.42829 63.3733 9.33329C63.278 9.36496 63.1828 9.42829 63.0558 9.45996C63.1193 9.30163 63.405 9.14329 63.5638 9.11163C63.5955 9.07996 63.6273 9.04829 63.6273 9.01663C63.5638 8.98496 63.5638 8.95329 63.5003 8.95329V8.92163V8.88996C63.5955 8.92163 63.659 8.95329 63.7543 8.92163L63.786 8.88996C63.786 8.85829 63.786 8.85829 63.8178 8.82663C63.7225 8.79496 63.6273 8.76329 63.532 8.73163C63.4368 8.73163 63.3098 8.73163 63.2145 8.73163C63.151 8.73163 62.9605 8.85829 62.8653 8.88996C62.6748 8.98496 62.6113 9.20663 62.3573 9.26996C62.3255 9.33329 62.3255 9.33329 62.3573 9.39663V9.4283C62.2938 9.4283 62.2938 9.42829 62.262 9.39663C62.1668 9.42829 62.1033 9.49163 62.0398 9.55496C62.0715 9.58663 62.1033 9.61829 62.135 9.64996C61.9763 9.61829 61.8175 9.71329 61.6588 9.74496C61.754 9.87163 61.754 9.93496 61.7858 9.99829ZM57.8805 10.1883H57.817C57.7853 10.22 57.7853 10.22 57.7535 10.2516C57.7535 10.2516 57.7853 10.2516 57.7853 10.2833C57.8488 10.22 57.8488 10.2516 57.8805 10.1883ZM51.975 22.5383C51.9433 22.57 51.9115 22.6333 51.9115 22.665L52.0068 36.8516C52.0068 36.9466 52.102 37.0416 52.1973 37.0416H63.659C63.7225 37.0416 63.7543 37.01 63.786 36.9783C63.8178 36.9466 63.8495 36.915 63.8495 36.8516V34.065C63.8495 33.97 63.7543 33.875 63.659 33.875H55.6263V31.215H60.9603C61.0238 31.215 61.0555 31.1833 61.0873 31.1516C61.119 31.12 61.1508 31.0566 61.1508 31.025V28.2383C61.1508 28.1433 61.0555 28.0483 60.9603 28.0483H55.6263V25.5783H63.5638C63.6273 25.5783 63.659 25.5466 63.6908 25.515C63.7225 25.4833 63.7543 25.42 63.7543 25.3883V22.6333C63.7543 22.5383 63.659 22.4433 63.5638 22.4433H52.1655C52.0703 22.475 52.0068 22.5066 51.975 22.5383ZM85.3125 18.675C85.3443 18.7066 85.3443 18.7066 85.376 18.7383V18.675C85.3443 18.6433 85.3125 18.6433 85.2808 18.6116C85.3125 18.6116 85.3125 18.6433 85.3125 18.675ZM85.9793 19.4983L86.011 19.4666C85.9793 19.435 85.9475 19.4033 85.9475 19.4033C85.9475 19.435 85.9793 19.4666 85.9793 19.4983ZM85.2808 17.5983C85.3125 17.5666 85.3125 17.5666 85.3443 17.5666C85.3125 17.535 85.2808 17.5033 85.249 17.4716C85.249 17.5033 85.2808 17.535 85.2808 17.5666C85.249 17.535 85.249 17.535 85.2173 17.5033C85.249 17.535 85.2808 17.5666 85.2808 17.5983ZM85.249 18.5166C85.2808 18.5166 85.2808 18.5166 85.3125 18.5483V18.5166C85.2808 18.4533 85.249 18.39 85.1855 18.3266V18.4533C85.2173 18.485 85.2173 18.485 85.249 18.5166ZM84.9315 17.82C84.8998 17.7883 84.8998 17.7566 84.868 17.725C84.868 17.7566 84.8998 17.7883 84.9315 17.82ZM36.7033 10.695C36.6715 10.79 36.6398 10.8533 36.5763 10.9483C36.5128 11.0116 36.4493 11.075 36.3858 11.17C36.354 11.265 36.0365 12.025 36.0365 12.0566C36.1 12.0566 36.1318 12.0566 36.1953 12.0566C36.1635 12.2783 36.2905 12.2783 36.2588 12.5633C36.1635 12.975 35.8778 13.45 35.7508 13.925C35.719 14.02 35.6238 14.2416 35.6555 14.3683C35.6873 14.5266 35.7508 14.7166 35.6873 14.9066C35.6238 15.0016 35.5603 15.1283 35.4968 15.255C35.4015 15.255 35.4015 15.2866 35.3063 15.255C35.2745 15.4766 35.3698 15.635 35.3698 15.825C35.4333 15.825 35.4015 15.825 35.4333 15.7933C35.5603 16.1416 35.4968 16.5216 35.2428 16.775C35.3063 17.1233 35.4968 17.2816 35.4333 17.82V17.8516H35.465C35.7825 17.535 35.6873 17.5666 35.719 17.155C35.719 17.1233 35.6873 17.0916 35.6873 17.0283C35.6555 17.06 35.6238 17.0916 35.6238 17.1233C35.6238 17.1233 35.6238 17.1233 35.592 17.1233C35.5603 16.87 35.8143 16.205 35.8778 15.92C35.9095 15.73 35.8143 15.4133 35.846 15.2233C35.973 14.7166 36.0048 13.64 36.4493 13.3233C36.481 13.355 36.481 13.3866 36.5128 13.4183C36.5445 13.4183 36.5445 13.3866 36.5763 13.3866C36.6715 13.6716 36.2905 14.115 36.354 14.5266C36.2588 14.59 36.227 14.6533 36.1635 14.7483C36.1635 14.7483 36.1953 14.78 36.227 14.78C36.2588 14.7483 36.2905 14.7166 36.3223 14.685C36.3223 14.78 36.2588 15.0966 36.354 15.1916C36.3858 15.2233 36.354 15.2233 36.4175 15.1916L36.4493 15.2233C36.3858 15.35 36.354 15.3816 36.354 15.5716C36.3858 15.6033 36.3858 15.6033 36.4493 15.6033C36.4175 15.6666 36.4175 15.73 36.3858 15.825C36.4175 15.825 36.4493 15.825 36.481 15.825C36.481 16.0466 36.3858 16.11 36.2905 16.2683C36.3223 16.4583 36.4175 16.5216 36.5128 16.68C36.4493 16.7433 36.4493 16.8066 36.4175 16.9016C36.5763 17.1233 36.7985 18.6116 36.481 18.8333C36.4175 18.9283 36.4175 18.9283 36.4493 19.0233C36.3858 19.0866 36.354 19.0866 36.2905 19.1183C36.0683 19.6883 36.5763 19.8466 36.5763 20.3216C36.608 20.3533 36.6398 20.385 36.7033 20.385C36.7033 20.385 38.6083 20.3216 39.7195 20.29C39.7513 20.29 39.6243 20.2583 39.5925 20.195C39.529 20.1633 39.3385 18.9916 39.3703 18.8333C39.402 18.77 39.4655 18.7066 39.4973 18.6433C39.3385 18.295 39.5925 17.915 39.7195 17.5983C39.8465 17.3133 39.9418 17.0283 40.0688 16.7433C40.164 16.6166 40.3863 16.6483 40.4498 16.395C40.4815 16.2366 40.418 16.0783 40.5133 15.8883C40.5768 15.6983 40.799 15.635 40.7673 15.4133C40.8625 15.4133 41.053 15.35 41.0848 15.255C41.1165 15.2233 41.1165 15.1916 41.1483 15.16C41.1483 15.2233 41.1483 15.1916 41.1165 15.255C41.2118 15.2233 41.18 15.1916 41.2118 15.2233C41.2435 15.1916 41.2435 15.16 41.2753 15.1283C41.2435 15.0966 41.2435 15.065 41.2118 15.065C41.4975 15.0966 41.7198 14.97 41.9738 14.8433C42.1325 14.875 42.069 14.78 42.069 14.685C42.1008 14.6533 42.1325 14.6216 42.196 14.59V14.6216C42.1643 14.6533 42.1643 14.685 42.1325 14.685C42.1643 14.685 42.1643 14.7166 42.196 14.7166C42.2595 14.78 42.5453 14.6216 42.704 14.6533C42.8628 14.685 43.212 14.8116 43.3073 14.875C43.339 14.875 43.339 14.875 43.3708 14.875V14.8116C43.339 14.8116 43.3073 14.8116 43.2438 14.8116C43.2438 14.78 43.2438 14.78 43.212 14.7483C43.2755 14.7483 43.3073 14.7166 43.339 14.7166C43.339 14.78 43.4343 14.875 43.4978 14.9383C43.4978 14.9383 43.466 14.9383 43.466 14.97C43.466 15.0016 43.4343 15.0016 43.4343 15.0333C43.4978 15.065 43.5295 15.1283 43.593 15.16C43.6883 15.1283 43.7518 15.0966 43.8153 15.065C43.8153 15.0966 43.847 15.1283 43.847 15.1916C43.974 15.16 43.974 15.0966 44.0375 15.0333C44.101 15.0966 44.1645 15.2233 44.2598 15.255C44.2915 15.255 44.2915 15.2866 44.3233 15.2866H44.355C44.3868 15.255 44.3868 15.2233 44.4185 15.1916C44.355 15.1283 44.2915 15.0966 44.2598 15.0333L44.228 15.0016C44.2915 14.9383 44.3233 14.9383 44.4185 14.9066C44.4503 14.8433 44.4503 14.8433 44.4503 14.7483C44.4185 14.78 44.355 14.8116 44.3233 14.8116H44.2915C44.2915 14.78 44.2598 14.78 44.2598 14.7483C44.5138 14.59 44.8313 14.6216 45.117 14.685C45.1488 14.6533 45.1488 14.59 45.1805 14.5583C45.2123 14.5583 45.2123 14.5266 45.244 14.5266C45.244 14.59 45.244 14.685 45.244 14.7483C45.625 14.78 45.9108 14.6533 46.1965 14.9383C46.26 15.0016 46.26 15.1283 46.2918 15.16C46.4188 15.255 46.768 15.065 46.9585 15.065C47.022 15.16 47.2125 15.5716 47.3078 15.6033C47.4348 15.92 47.0538 16.0783 47.0855 16.3316H47.1173C47.1808 16.2683 47.1808 16.2683 47.149 16.205C47.149 16.205 47.1808 16.205 47.1808 16.1733C47.2125 16.2683 47.1808 16.2366 47.276 16.2683C47.2125 16.3316 47.149 16.3633 47.0855 16.4266C47.0538 16.49 47.1173 16.6483 47.1173 16.8066C47.149 16.8383 47.1808 16.8383 47.2125 16.8383C47.2125 16.8066 47.2443 16.775 47.2443 16.775C47.2443 16.775 47.2443 16.8066 47.276 16.8066C47.2125 16.9016 47.2125 16.9333 47.149 16.9966C47.1808 16.9966 47.1808 16.9966 47.2125 16.965C47.2443 17.0283 47.276 17.06 47.2443 17.155C47.2443 17.4083 47.53 17.4083 47.403 17.6933C47.4983 17.82 47.8158 17.7566 47.8793 17.7566C47.8793 17.535 48.1333 17.3133 48.2285 17.1233C48.3555 16.87 48.2285 16.49 48.2285 16.1733C48.2603 16.1733 48.292 16.1416 48.3238 16.1416C48.292 15.92 48.2285 15.6666 48.1968 15.4133C48.292 14.495 49.0223 14.2733 49.7525 14.0516C50.1018 13.9566 49.9748 13.64 50.6098 13.7666C50.7685 13.4816 51.3083 13.5133 51.6258 13.45C51.6258 13.45 51.6258 13.4183 51.6575 13.4183C51.594 13.3866 51.594 13.3866 51.5623 13.3233V13.2916C51.6575 13.2283 51.9115 13.1966 52.0068 13.1966C52.0385 13.1333 52.0703 13.1016 52.102 13.07C52.0385 12.975 51.9115 12.9433 51.7845 12.9433V12.9116C51.9115 12.9433 52.0068 12.9433 52.102 12.975C52.102 13.0066 52.102 13.07 52.102 13.1016C52.102 13.1016 52.1655 12.7533 52.1655 12.5633C52.1338 12.5633 52.102 12.5316 52.0703 12.5316C52.0068 12.5 52.0703 12.5316 52.0703 12.4366C52.0703 12.3733 52.1973 12.1833 52.2608 12.12C52.1973 12.0883 52.2608 11.8033 52.2608 11.7083C52.356 11.645 52.4195 11.5816 52.5148 11.4866C52.3243 11.7716 52.4195 11.7716 52.356 12.0883C52.4195 12.0883 52.4513 12.12 52.5148 12.1516C52.4195 12.2466 52.3243 12.2783 52.2608 12.405C52.2608 12.405 52.2608 12.4366 52.229 12.4366C52.2608 12.4683 52.2608 12.4683 52.3243 12.4683C52.4195 12.2783 52.8323 12.12 52.991 11.835C52.8958 11.7083 52.9275 11.645 52.8958 11.5183C52.9593 11.5816 52.991 11.645 53.118 11.6766C53.0863 11.7083 53.0545 11.74 53.0545 11.7716C53.3085 11.8033 53.6895 11.455 53.7848 11.2966C53.753 11.2333 53.7848 11.265 53.7213 11.2333V11.2016C54.0388 11.17 54.4833 11.265 54.8008 11.2333C54.769 11.2016 54.7373 11.17 54.7055 11.1383C54.4515 11.17 54.2293 11.075 53.9753 11.1383C54.2928 10.885 55.2135 11.2333 55.6263 11.075C55.658 11.17 55.7533 11.17 55.9755 11.17C56.0073 11.1383 56.0073 11.1066 56.039 11.075C56.039 11.0433 56.0073 11.0116 55.9755 10.98C55.9438 11.075 55.9755 11.075 55.8803 11.075C55.8485 11.075 55.785 11.075 55.7533 11.0433C55.7215 10.9483 55.7533 10.79 55.5945 10.7583V10.7266C55.6898 10.695 55.7533 10.695 55.8485 10.6633C55.8168 10.6316 55.785 10.6 55.785 10.5683C55.912 10.41 56.1343 10.3466 56.2613 10.2516C56.5153 10.315 56.7058 10.315 56.9598 10.1566C56.9915 10.22 56.9915 10.1883 56.9915 10.2516C57.309 10.22 57.6265 10.2516 57.9758 10.1566C57.944 10.125 57.944 10.0933 57.9123 10.0616C57.944 10.0616 58.1345 10.125 58.198 10.125C58.452 10.1883 58.96 10.125 59.1823 10.0616L59.214 10.0933C59.1188 10.125 59.0553 10.125 58.96 10.1566C58.96 10.1566 58.96 10.1883 58.9283 10.1883C59.0235 10.22 59.1188 10.22 59.214 10.2516C58.8965 10.315 58.5473 10.3466 58.2298 10.41C58.2298 10.41 58.2298 10.4416 58.198 10.4416C58.2298 10.4416 58.2615 10.41 58.325 10.41C58.2933 10.41 58.2615 10.4416 58.2615 10.4416C58.1663 10.5366 58.1663 10.5366 58.1663 10.7266C58.198 10.7266 58.2298 10.7266 58.2615 10.7266C58.325 10.8216 58.2933 10.885 58.4203 10.885C58.6425 10.885 58.8965 10.7266 59.1505 10.7266C59.1823 10.6633 59.1505 10.6316 59.2458 10.6C59.2775 10.6316 59.2775 10.6316 59.2775 10.6633C59.3093 10.6316 59.3093 10.6316 59.341 10.6C59.3728 10.695 59.4045 10.695 59.4998 10.7266C59.6585 10.5683 60.5475 10.7583 60.8333 10.695H60.865C60.8015 10.6316 60.7698 10.6316 60.6428 10.6316C60.6745 10.6 60.7063 10.6 60.738 10.5683C60.9603 10.6316 61.1825 10.6 61.4683 10.6V10.5366C61.5 10.4416 61.3413 10.3466 61.2143 10.3466V10.315C61.246 10.2516 61.3095 10.22 61.3413 10.1566C61.3095 10.0933 61.3095 10.125 61.3095 10.0616C61.2778 10.0616 61.246 10.03 61.2143 10.03C61.0555 10.125 60.6428 10.22 60.6428 10.4416C60.5158 10.4733 60.4523 10.4416 60.4523 10.315C60.0713 10.3466 59.9125 10.1566 59.5633 10.125C59.5315 10.0933 59.4998 10.0616 59.4998 10.03C59.5315 10.03 59.5315 10.03 59.5633 10.03C59.5633 10.03 59.5633 9.99829 59.595 9.99829C59.4998 9.96663 59.3728 9.90329 59.2775 9.87163C59.214 9.83996 59.1823 9.68163 59.1188 9.58663C59.1505 9.55496 59.1823 9.55496 59.214 9.52329C59.1823 9.49163 59.1188 9.45996 59.0235 9.45996V9.4283C59.214 9.39663 59.2775 9.30163 59.468 9.23829C59.468 9.20663 59.4998 9.20663 59.4998 9.17496V9.14329C59.3093 9.20663 59.1823 9.17496 58.9283 9.17496C58.8965 9.04829 58.8013 9.01663 58.6743 8.98496C58.6743 8.98496 58.6743 8.95329 58.6425 8.95329C58.8648 8.98496 58.96 9.07996 59.1505 9.11163C59.341 9.07996 59.4998 9.07996 59.6903 9.04829C59.6903 9.01663 59.6903 9.01663 59.6903 8.98496C59.7538 8.95329 59.6903 8.95329 59.6585 8.88996C59.6903 8.88996 59.722 8.92163 59.722 8.92163V8.88996C59.3093 8.31996 57.817 8.54163 57.182 8.63663C56.928 8.69996 56.7375 8.92163 56.42 8.92163C56.5788 8.79496 57.4678 8.44663 57.7535 8.35163C57.7535 8.35163 58.325 8.38329 58.3568 8.38329C58.4203 8.31996 58.452 8.25663 58.5155 8.22496C58.7378 8.09829 59.087 8.16163 59.4045 8.22496C59.8173 8.35163 60.1665 8.38329 60.5793 8.50996C60.8333 8.60496 61.5635 8.88996 61.8175 8.85829C62.008 8.82663 62.1985 8.76329 62.3573 8.69996C62.77 8.54163 63.5955 8.95329 63.8813 8.63663C63.913 8.57329 63.8813 8.63663 63.8495 8.54163C63.8495 8.54163 63.8813 8.54163 63.8813 8.57329C63.9448 8.47829 63.8813 8.22496 63.9448 8.12996C63.8495 8.09829 63.7543 8.06663 63.659 8.00329C63.659 7.93996 63.659 8.00329 63.6908 7.93996C63.5003 7.93996 63.5003 7.87663 63.3733 7.87663C63.3415 7.68663 63.151 7.62329 62.9605 7.59163V7.55996C63.1193 7.59163 63.2463 7.59163 63.405 7.62329C63.3098 7.49663 63.1193 7.49663 63.1193 7.36996C62.9923 7.33829 62.8653 7.36996 62.7383 7.27496C62.6748 7.24329 62.7065 7.24329 62.6748 7.17996C62.6113 7.11663 62.4208 7.14829 62.3573 7.08496C62.2938 7.02163 62.262 6.95829 62.1668 6.89496C62.135 6.83163 62.135 6.86329 62.1985 6.79996C62.1985 6.76829 61.881 6.54663 61.754 6.51496C61.8175 6.45163 61.7858 6.48329 61.8493 6.48329C61.8493 6.45163 61.8493 6.35663 61.881 6.22996C61.8493 6.19829 61.8175 6.19829 61.754 6.16663C61.754 6.16663 61.7858 6.07163 61.7858 5.97663C61.627 5.91329 61.4683 5.84996 61.4683 5.65996H61.373C61.2778 5.50163 60.865 4.99496 60.8968 4.83663C60.484 4.96329 59.9443 5.62829 59.3728 5.15329C59.2775 5.15329 59.214 5.02663 59.0235 4.99496C59.0235 4.93163 59.0235 4.89996 58.9918 4.83663C58.96 4.83663 58.9283 4.83663 58.8648 4.80496C58.9283 4.67829 58.96 4.64663 58.96 4.45663C59.0235 4.42496 59.087 4.42496 59.1505 4.39329C59.1505 4.36163 59.1188 4.32996 59.087 4.32996C59.0235 4.36162 58.9918 4.36163 58.9283 4.39329C58.8013 4.26663 58.579 4.20329 58.3568 4.17163V4.13996V4.10829C58.3885 4.07663 58.3885 4.07663 58.452 4.07663V4.04496C58.325 3.91829 58.0393 3.72829 57.8805 3.66496C57.7218 3.66496 57.5948 3.66496 57.4678 3.66496C57.1185 3.53829 56.7693 3.41163 56.42 3.41163C56.3883 3.44329 56.3565 3.47496 56.3248 3.50663C56.3248 3.53829 56.3248 3.53829 56.293 3.56996C56.3248 3.60163 56.3248 3.60163 56.3883 3.63329C56.3248 3.72829 56.2295 3.75996 56.0708 3.79163C56.1978 3.94996 56.1025 3.94996 56.1978 4.07663C56.1343 4.13996 55.7215 4.29829 55.5628 4.29829C55.531 4.32996 55.531 4.36163 55.4993 4.39329C55.7215 4.45663 55.912 4.61496 55.912 4.89996C55.7215 5.27996 55.3088 5.34329 54.8325 5.43829C54.642 5.43829 54.4833 5.43829 54.2928 5.46996H54.261C54.261 5.53329 54.261 5.62829 54.3563 5.69163C54.261 5.88163 54.0705 6.07163 54.1975 6.26163C54.1023 6.32496 53.9753 6.41996 53.88 6.41996C53.88 6.48329 53.88 6.51496 53.88 6.57829C53.8483 6.57829 53.8483 6.57829 53.8165 6.60996C53.8165 6.54663 53.7848 6.54663 53.753 6.48329C53.626 6.51496 53.5308 6.54663 53.4355 6.60996C53.372 6.57829 53.3085 6.54663 53.2768 6.51496C53.2133 6.26163 53.0545 6.07163 52.9275 5.84996C53.0228 5.75496 53.0863 5.69163 53.1498 5.59663C53.1498 5.56496 53.1498 5.50163 53.118 5.46996C53.2133 5.37496 53.3085 5.31163 53.4038 5.18496C53.0545 5.15329 52.0385 4.83663 51.848 4.64663C51.7845 4.58329 51.7528 4.42496 51.6575 4.36163C51.4988 4.29829 51.34 4.20329 51.1813 4.13996C50.9908 4.13996 50.832 4.13996 50.6415 4.13996H50.6098C50.7368 4.01329 50.8003 3.82329 50.9273 3.66496C50.832 3.63329 50.705 3.60163 50.578 3.63329C50.578 3.60163 50.578 3.56996 50.578 3.56996C50.9273 3.18996 51.975 2.77829 52.4513 2.80996C52.4195 2.77829 52.3878 2.74663 52.3878 2.74663C52.5465 2.74663 52.737 2.77829 52.9275 2.74663C52.991 2.68329 52.991 2.65163 52.9275 2.61996C52.9593 2.61996 52.991 2.61996 52.991 2.61996C53.3403 2.65163 54.0705 2.61996 54.4198 2.46163C54.4515 2.42996 54.4515 2.42996 54.4198 2.42996C54.6738 2.39829 54.896 2.36663 55.15 2.36663C55.15 2.36663 55.15 2.39829 55.1183 2.39829C54.8008 2.36662 54.4515 2.52496 54.3563 2.74663C54.1975 2.74663 54.0388 2.74663 53.9753 2.80996C54.0705 2.87329 54.2928 2.84162 54.4198 2.87329C54.388 2.87329 54.3563 2.90496 54.3563 2.93663C54.3245 2.96829 54.3245 2.99996 54.2928 3.03163C54.5468 3.06329 54.9278 2.99996 55.1183 2.90496C55.2135 2.93663 55.3088 2.96829 55.404 2.99996C55.3723 2.99996 55.3405 3.03163 55.3088 3.03163C55.4675 3.15829 55.7533 3.15829 56.0708 3.15829C56.039 3.12663 56.039 3.09496 56.0073 3.06329C55.912 3.03163 55.8168 2.99996 55.6898 2.99996C55.7215 2.96829 55.7215 2.90496 55.7533 2.87329C55.6263 2.77829 55.3405 2.71496 55.277 2.58829C55.2135 2.52496 55.277 2.46163 55.2135 2.42996C55.2453 2.42996 55.277 2.42996 55.3088 2.42996C55.404 2.49329 55.531 2.58829 55.5945 2.61996C55.6263 2.58829 55.5945 2.61996 55.6263 2.58829C55.6263 2.58829 55.6263 2.58829 55.658 2.55662C55.6263 2.55662 55.6263 2.55663 55.5945 2.58829C55.5628 2.52496 55.5628 2.52496 55.4675 2.46163V2.42996C55.531 2.46163 55.5945 2.49329 55.6263 2.49329C55.6263 2.46163 55.6263 2.42996 55.6263 2.39829C55.658 2.39829 55.658 2.39829 55.6898 2.39829C55.7215 2.42996 55.785 2.46163 55.8168 2.49329V2.46163C56.0708 2.39829 56.3248 2.39829 56.547 2.33496C57.055 2.30329 57.5948 2.27163 58.1345 2.27163C58.2298 2.30329 58.5155 2.30329 58.579 2.30329C58.579 2.30329 58.579 2.33496 58.6108 2.33496C58.5473 2.36663 58.5155 2.30329 58.452 2.33496H58.2298C58.2933 2.46163 58.3885 2.42996 58.4838 2.39829C58.5155 2.42996 58.5155 2.49329 58.5473 2.52496C58.4838 2.49329 58.4203 2.49329 58.325 2.49329C58.3568 2.61996 58.579 2.61996 58.706 2.65163C58.706 2.61996 58.706 2.58829 58.7378 2.58829C58.6743 2.58829 58.6108 2.55662 58.579 2.55662C58.579 2.52496 58.579 2.49329 58.6108 2.46163C58.706 2.49329 58.7695 2.55663 58.8965 2.58829C58.9283 2.68329 58.96 2.74663 58.9918 2.84163C58.7378 2.87329 58.452 2.90496 58.198 2.93663C58.198 2.93663 58.198 2.96829 58.1663 2.96829C58.2298 3.03163 58.2933 3.06329 58.325 3.12663V3.15829C58.1345 3.09496 57.944 3.15829 57.7535 3.12663C57.3725 3.06329 57.0868 2.87329 56.7375 3.09496C56.7375 3.12663 56.7375 3.12663 56.7693 3.15829C56.8645 3.34829 57.2138 3.28496 57.4043 3.31663C57.6265 3.34829 57.9123 3.37996 58.1345 3.47496C58.3568 3.56996 58.4203 3.72829 58.6743 3.75996C58.6108 3.79163 58.579 3.79163 58.5155 3.75996C58.579 3.85496 58.6425 3.91829 58.8013 3.94996C58.7695 3.94996 58.7695 3.98163 58.7378 3.98163C58.8013 4.04496 58.833 4.07663 58.9283 4.13996H58.9918C58.96 4.07663 58.9918 4.07663 58.9283 4.04496C59.4045 4.20329 59.8808 4.55162 60.4523 4.64663C60.484 4.58329 60.4523 4.61496 60.5158 4.58329V4.55163C60.357 4.32996 59.9443 4.10829 59.6903 3.98163C59.6903 3.94996 59.6903 3.94996 59.6585 3.91829C59.7538 3.98163 59.8808 4.04496 59.976 4.07663V4.01329C60.2935 4.20329 60.6428 4.42496 60.9285 4.58329C60.9603 4.58329 60.992 4.58329 61.0238 4.58329H61.0555C61.0555 4.58329 61.0555 4.58329 61.0555 4.55163C60.9603 4.48829 60.8968 4.48829 60.8333 4.39329C60.8968 4.42496 60.9285 4.42496 60.9603 4.45663C60.9603 4.45663 60.9603 4.45663 60.992 4.45663C60.992 4.39329 60.992 4.39329 60.9285 4.32996C60.9285 4.32996 60.9285 4.29829 60.9603 4.29829C60.992 4.32996 60.992 4.29829 61.0238 4.36163C61.119 4.36163 61.0873 4.32996 61.1508 4.29829C61.1825 4.36163 61.1825 4.36163 61.246 4.39329H61.2778C61.2778 4.36163 61.246 4.36162 61.246 4.32996H61.373V4.29829C61.2778 4.23496 61.1825 4.17163 61.0555 4.13996C61.0555 4.13996 61.0555 4.10829 61.0238 4.10829C61.0555 4.10829 61.0873 4.10829 61.119 4.10829V3.94996C61.0238 3.85496 60.738 3.63329 60.5158 3.66496C60.5158 3.56996 60.4523 3.44329 60.357 3.41163H60.484C60.484 3.41163 60.484 3.37996 60.5158 3.37996C60.484 3.34829 60.484 3.34829 60.4523 3.31663C60.6745 3.34829 60.865 3.50663 61.0555 3.50663C60.992 3.72829 61.4365 3.79163 61.5635 3.91829C61.6905 3.88663 61.6588 3.85496 61.754 3.85496C61.7223 3.85496 61.7223 3.82329 61.6905 3.82329C61.7223 3.75996 61.6905 3.79163 61.754 3.75996C61.8493 3.79163 61.9128 3.82329 62.008 3.79163V3.85496C62.0398 3.85496 62.1033 3.85496 62.135 3.85496C62.135 3.82329 62.1033 3.82329 62.0715 3.79163C62.135 3.75996 62.0715 3.79163 62.135 3.79163C62.1668 3.79163 62.1668 3.79163 62.1985 3.79163C62.1668 3.75996 62.1668 3.72829 62.135 3.69663C62.2938 3.72829 62.3573 3.72829 62.4843 3.69663C62.4525 3.56996 62.262 3.50663 62.0715 3.50663C62.0398 3.47496 62.0715 3.47496 62.135 3.47496C62.0715 3.47496 62.008 3.47496 61.9763 3.47496C61.9128 3.44329 61.881 3.34829 61.6905 3.34829C61.7223 3.31663 61.6905 3.31663 61.754 3.31663C61.6905 3.25329 61.5318 3.18996 61.4365 3.18996L61.4048 3.15829C61.4365 3.15829 61.4365 3.12663 61.4683 3.12663C61.2778 3.09496 61.246 3.03163 61.119 3.09496C61.0238 2.99996 61.0238 2.96829 60.865 2.93663C60.865 2.90496 60.8968 2.90496 60.8968 2.87329C60.7698 2.84162 60.6428 2.80996 60.484 2.77829V2.74663C60.5158 2.74663 60.5475 2.74662 60.5793 2.71496C60.5793 2.65162 60.5793 2.68329 60.5475 2.61996C60.6745 2.65163 60.8015 2.68329 60.9285 2.71496L60.9603 2.68329C60.8968 2.61996 60.7698 2.55662 60.6428 2.55662C60.6428 2.55662 60.6428 2.52496 60.6428 2.49329C60.7063 2.52496 60.7698 2.52496 60.8333 2.55662C60.8333 2.55662 60.8333 2.55662 60.865 2.55662V2.49329C60.7063 2.36663 60.6745 2.36662 60.4523 2.39829C60.5158 2.33496 60.5158 2.33496 60.611 2.33496C60.611 2.33496 60.611 2.33496 60.611 2.30329C60.611 2.30329 60.5793 2.30329 60.5793 2.27163C61.0555 2.30329 61.5318 2.33496 62.008 2.39829C62.008 2.39829 62.008 2.39829 62.008 2.42996C62.262 2.49329 62.4843 2.58829 62.8335 2.55662V2.52496C62.8335 2.52496 62.8018 2.52496 62.8018 2.49329C62.8335 2.49329 62.8653 2.49329 62.9288 2.49329C62.9605 2.52496 63.024 2.55662 63.0558 2.55662C63.0875 2.52496 63.0875 2.52496 63.1193 2.52496C63.0558 2.61996 62.9923 2.65163 63.024 2.74663C62.6748 2.68329 62.389 2.55663 62.262 2.96829C62.2938 2.99996 62.3573 3.03163 62.389 3.06329C62.3573 3.06329 62.3255 3.09496 62.2938 3.09496C62.2938 3.12663 62.2938 3.15829 62.262 3.18996C62.4208 3.31663 62.4843 3.37996 62.6748 3.47496C62.6748 3.53829 62.7065 3.60163 62.7065 3.69663C62.7383 3.72829 62.7383 3.72829 62.8018 3.72829C62.8653 3.79163 62.8335 3.85496 62.8653 3.91829C62.9605 4.04496 63.3415 4.23496 63.4368 4.36163C63.4685 4.39329 63.4368 4.45663 63.5003 4.51996C63.6273 4.61496 63.786 4.67829 63.913 4.77329C63.9448 4.80496 63.913 4.77329 63.913 4.80496C64.167 4.93162 64.5798 4.93163 64.802 5.05829C64.8338 5.08996 64.8338 5.08996 64.8338 5.15329C65.056 5.21663 65.31 5.27996 65.5323 5.34329C65.5323 5.34329 65.564 5.34329 65.5958 5.34329C65.6275 5.27996 65.5958 5.27996 65.5958 5.21663C65.7228 5.15329 65.7545 4.99496 65.8815 4.86829C65.818 4.77329 65.818 4.77329 65.818 4.64663C66.0085 4.61496 66.072 4.51996 66.2308 4.48829C66.199 4.39329 66.2308 4.36162 66.1355 4.32996C66.1673 4.29829 66.1673 4.29829 66.2308 4.32996C66.2625 4.29829 66.2625 4.29829 66.2943 4.26663C66.2308 4.23496 66.199 4.17163 66.1355 4.13996H66.1038V4.10829C66.199 4.13996 66.2943 4.13996 66.3895 4.13996C66.3895 4.13996 66.4213 4.13996 66.4213 4.10829C66.3895 4.07663 66.3895 4.04496 66.3578 4.01329C66.3578 4.01329 66.3578 4.01329 66.3578 3.98163C66.4848 4.04496 66.58 4.04496 66.7705 4.07663C66.7705 4.04496 66.8023 3.98163 66.8023 3.94996C66.834 3.94996 66.8658 3.94996 66.8975 3.94996C66.8658 3.98163 66.834 4.04496 66.8023 4.07663C66.8023 4.07663 66.8023 4.10829 66.834 4.10829C67.2468 4.20329 67.5008 4.04496 67.8818 3.98163V3.88663C68.1675 3.79163 68.5485 3.88663 68.866 3.94996C69.9455 4.29829 70.9615 4.70996 71.9775 5.18496C71.8505 5.15329 71.7235 5.08996 71.5965 5.05829C71.5965 5.05829 71.5965 5.05829 71.5648 5.08996C71.5648 5.12163 71.5965 5.15329 71.5965 5.15329C71.5013 5.08996 71.4378 5.02663 71.3108 4.99496V5.02663C71.3425 5.05829 71.3743 5.08996 71.406 5.12162V5.15329C71.3108 5.12163 71.3425 5.12163 71.279 5.15329C71.0885 4.99496 70.9298 4.77329 70.6123 4.74163C70.644 4.77329 70.6758 4.80496 70.7075 4.83663C70.644 4.80496 70.6123 4.80496 70.5805 4.77329C70.5488 4.80496 70.4853 4.83663 70.4535 4.89996C70.4535 4.89996 70.4535 4.93163 70.4218 4.93163C70.644 4.99496 70.8663 5.05829 71.0885 5.08996C70.9933 5.18496 70.8663 5.15329 70.6758 5.08996C70.6758 5.08996 70.6758 5.12162 70.644 5.12162C70.644 5.12162 70.644 5.15329 70.6758 5.15329C70.9933 5.21663 71.1203 5.31163 71.3108 5.40663C71.3108 5.40663 71.3108 5.43829 71.3425 5.43829C71.279 5.40663 71.2155 5.40663 71.1838 5.40663C71.1838 5.40663 71.1838 5.40663 71.152 5.43829C71.152 5.46996 71.1838 5.50163 71.1838 5.50163C71.66 5.62829 72.7713 6.16663 73.1523 5.75496C74.327 6.35663 75.4383 7.02163 76.5178 7.71829C76.5178 7.71829 76.486 7.71829 76.4543 7.74996C76.4543 7.84496 76.4543 7.84496 76.486 7.90829C76.4225 7.93996 76.3908 7.93996 76.3273 7.97163C76.3908 8.06663 76.486 8.12996 76.5178 8.19329C76.5178 8.25663 76.5495 8.31996 76.5495 8.38329C76.7083 8.60496 77.0258 8.73163 77.1528 9.01663C77.248 9.04829 77.2163 9.01663 77.2798 8.98496C77.3115 9.04829 77.3433 9.11163 77.3433 9.20663C77.4385 9.30163 77.883 9.55496 78.0418 9.45996C78.1053 9.42829 78.137 9.30163 78.1053 9.20663C78.137 9.17496 78.1688 9.17496 78.2005 9.14329C78.2005 9.11163 78.1688 9.07996 78.1688 9.07996V9.01663C78.645 9.23829 78.8673 9.83996 79.3753 10.03C79.407 10.0933 79.4388 10.1566 79.4388 10.22C79.3753 10.2516 79.3435 10.315 79.3118 10.3466C79.407 10.4733 79.5023 10.5683 79.661 10.6316C79.6293 10.695 79.6293 10.6633 79.534 10.6316C79.534 10.6316 79.534 10.6316 79.534 10.6633C79.5658 10.7266 79.5975 10.7583 79.661 10.79C79.6928 10.79 79.7245 10.79 79.7563 10.79V10.6633C79.7245 10.6 79.661 10.505 79.5658 10.4733C79.5658 10.41 79.5658 10.4733 79.5975 10.41C79.5658 10.3783 79.534 10.315 79.5023 10.2833C79.5975 10.3466 79.661 10.41 79.6928 10.505C79.7563 10.505 79.8198 10.505 79.8833 10.505C79.8833 10.505 79.8833 10.505 79.915 10.505V10.4416C79.8515 10.3783 79.8198 10.315 79.788 10.2833C79.788 10.2516 79.8198 10.2516 79.8198 10.2516C80.0738 10.4733 80.3278 10.695 80.55 10.9166C80.55 10.9166 80.55 10.9483 80.55 10.98C80.5183 10.98 80.4865 11.0116 80.4548 11.0116C80.3278 11.1383 80.296 11.0116 80.169 11.0116C80.1055 10.9483 80.1373 10.98 80.1373 10.9166C80.0738 10.885 80.042 10.8216 79.9785 10.79C79.9785 10.8216 79.9785 10.8533 79.9785 10.885C79.9468 10.885 79.915 10.885 79.8833 10.8533C79.915 10.9483 79.8515 10.9166 79.8198 11.0433C79.788 11.0433 79.7563 11.0433 79.7245 11.0116C79.6928 10.98 79.661 10.885 79.661 10.8533C79.6293 10.8216 79.6293 10.8216 79.5658 10.79C79.5658 10.8216 79.5975 10.8216 79.5975 10.8533C79.4705 10.8533 79.3435 10.7266 79.2483 10.6633C79.2165 10.6633 79.2483 10.6633 79.2483 10.6316C79.2165 10.6 79.1848 10.5683 79.0895 10.5683V10.5366V10.505C79.2165 10.5683 79.3118 10.6316 79.4388 10.695C79.3753 10.5366 79.2165 10.315 79.026 10.3783C78.9943 10.315 78.9625 10.22 78.9308 10.125C78.9625 10.1566 78.9625 10.1566 78.9943 10.1566C78.9943 10.125 78.9943 10.0933 78.9943 10.0933C78.8355 9.90329 78.6133 9.80829 78.518 9.55496C78.4863 9.58663 78.4545 9.58663 78.4228 9.61829C78.4228 9.64996 78.4545 9.71329 78.4545 9.74496C78.4228 9.74496 78.4228 9.74496 78.391 9.74496C78.3593 9.77663 78.3275 9.77663 78.2958 9.77663C78.3593 10.0933 78.9625 10.5366 78.9308 10.6633C78.9625 10.6633 79.026 10.695 79.0578 10.695C79.1213 10.8216 79.2165 10.885 79.28 11.0116C79.2165 11.0433 79.2483 11.0116 79.2483 11.1066C79.153 11.075 79.1213 11.0433 78.9943 11.075V11.17C78.9308 11.17 78.8355 11.2016 78.772 11.2016C78.772 11.2333 78.7403 11.265 78.7403 11.265C78.772 11.2966 78.772 11.3283 78.8038 11.3916C78.8673 11.4233 78.8673 11.4233 78.9308 11.3916C78.9625 11.4866 79.026 11.5183 78.9943 11.5816C78.9308 11.645 78.9943 11.6133 78.899 11.5816C78.899 11.5816 78.899 11.5816 78.8673 11.5816C78.899 11.7083 78.8673 11.7083 78.9308 11.8033C78.899 11.8033 78.8355 11.7716 78.8038 11.7716C78.7403 11.6133 78.6768 11.4233 78.645 11.265C78.645 11.265 78.6133 11.265 78.6133 11.2333C78.6768 11.455 78.8673 11.8033 78.7085 11.93C78.6133 12.025 78.4545 12.025 78.3593 12.12C78.4228 12.215 78.4545 12.3416 78.4863 12.4366C78.4228 12.5 78.391 12.5 78.2958 12.5316C78.264 12.595 78.2005 12.6266 78.2958 12.69C78.2958 12.7216 78.264 12.7216 78.2323 12.7533C78.01 12.785 77.7878 12.6266 77.629 12.5633C77.629 12.5633 77.629 12.5633 77.5973 12.595C77.6925 12.7216 77.8195 12.8166 77.883 13.0066C77.9148 13.0066 77.9148 13.0383 77.9465 13.07V13.1016C77.8195 13.07 77.7243 13.07 77.629 13.1333C77.5655 13.07 77.502 13.0383 77.4385 12.975C77.3115 13.0383 77.1528 13.0066 77.0575 13.1016H77.0258C77.0575 13.26 77.1528 13.2283 77.248 13.2916C77.2163 13.2916 77.1845 13.2916 77.1528 13.3233C77.3433 13.4816 77.5973 13.45 77.8513 13.545C77.8513 13.545 78.645 14.305 78.6768 14.3366C78.645 14.305 78.6133 14.305 78.5815 14.2733C78.5815 14.2733 78.5815 14.2733 78.5498 14.305C78.7403 14.59 78.9625 15.0016 78.9625 15.5083C78.6768 15.6033 77.9783 15.4133 77.5973 15.3816C77.502 15.3816 77.248 15.4766 77.0893 15.445C77.0258 15.4133 76.994 15.35 76.867 15.3816C76.7718 15.35 76.74 15.4766 76.7718 15.54C76.6765 15.5716 76.5813 15.5716 76.5495 15.635C76.5178 15.635 76.486 15.6666 76.486 15.6666C76.486 15.825 76.5813 15.825 76.613 15.9516C76.6765 15.9516 76.6448 15.9516 76.7083 15.92C76.74 16.205 76.9305 16.4266 77.0258 16.68C77.121 16.9333 77.0575 17.63 77.0258 17.8833C77.0893 17.9466 77.1528 18.01 77.2163 18.0733C77.248 18.0416 77.2798 18.0416 77.3115 18.01C77.4068 18.2316 77.4703 18.485 77.4385 18.8333C77.5973 18.77 77.7878 18.865 77.883 18.8333C77.9465 18.8016 77.9783 18.7383 78.0735 18.7066C78.3593 18.58 78.518 19.2766 78.8355 19.34C78.899 19.2766 79.153 19.055 79.153 18.9916C79.3753 18.9916 79.534 18.96 79.7245 19.0233C79.7245 18.9916 79.7563 18.96 79.7563 18.96C79.8515 18.96 79.8515 18.9916 79.915 19.0233C79.9785 18.8966 80.0103 18.7066 80.042 18.6116C80.1055 18.58 80.1373 18.58 80.2325 18.58C80.2325 18.485 80.169 18.3266 80.2325 18.1683C80.2643 18.0733 80.3278 18.0733 80.3595 17.9466C79.8515 17.5983 80.296 17.155 80.169 16.87C80.2643 16.7433 80.3595 16.775 80.4865 16.68C80.55 16.6166 80.6453 16.4583 80.7088 16.395C80.677 16.205 80.3913 15.9516 80.4548 15.73C80.4865 15.6666 80.55 15.635 80.5818 15.5716C80.8358 15.6666 80.9945 15.7616 81.2168 15.8566C81.312 15.7616 81.312 15.5716 81.5025 15.5083C81.5025 15.445 81.5343 15.35 81.566 15.2866V15.255C82.0105 15.3183 82.2963 15.9516 82.5185 16.2683C82.5185 16.2683 83.1535 16.87 83.1853 16.9016C83.217 16.9016 83.2805 16.87 83.344 16.9333C83.3758 16.9966 83.4075 17.06 83.471 17.1233C83.9473 17.5666 84.106 17.725 84.3283 18.4216C84.2648 18.4533 84.1695 18.4533 84.1378 18.5483C83.979 18.5483 83.979 18.5166 83.852 18.4533C83.8203 18.485 83.8203 18.485 83.8203 18.5483C83.7885 18.5166 83.7885 18.5166 83.7568 18.485C83.7568 18.485 83.7568 18.485 83.725 18.485C83.725 18.5483 83.6933 18.6433 83.7568 18.7066C83.7885 18.77 84.3918 19.245 84.487 19.2766H84.5188C84.487 19.0233 84.36 18.8966 84.36 18.58C84.3918 18.6116 84.4235 18.6433 84.4553 18.6433C84.487 18.5166 84.4553 18.3583 84.4235 18.2316C84.4235 18.1366 84.4235 18.1683 84.487 18.1366C84.4235 17.915 84.3283 17.8833 84.233 17.7566C84.2013 17.63 84.1695 17.5033 84.1378 17.3766L84.1695 17.345C84.233 17.44 84.4235 17.6616 84.5505 17.725C84.4553 17.345 84.106 17.0283 83.7885 16.9016C83.7568 16.8383 83.725 16.775 83.7568 16.68C83.6615 16.6166 83.5663 16.68 83.471 16.585C83.217 16.395 83.1218 16.0783 82.9313 15.825C82.7725 15.6033 82.455 15.54 82.3598 15.2233C82.3598 15.1916 82.3915 15.16 82.3915 15.0966C82.3598 15.0016 82.2645 14.97 82.2328 14.875C82.328 14.8433 82.328 14.8433 82.3598 14.78C82.3915 14.78 82.3915 14.78 82.4233 14.78C82.4868 14.875 82.6138 15.0966 82.6455 15.1916C82.6455 15.1916 82.6773 15.1916 82.6773 15.2233C82.6773 15.1916 82.6773 15.1283 82.709 15.0966C82.7408 15.16 82.7725 15.2233 82.8043 15.2866C82.836 15.2866 82.836 15.3183 82.8678 15.3183C82.836 15.255 82.836 15.2233 82.8043 15.16C82.963 15.2233 83.0265 15.4766 83.09 15.5716C83.217 15.73 83.4075 15.7933 83.5028 15.92C83.471 15.92 83.471 15.92 83.4393 15.8883C83.471 15.9833 83.5028 15.9833 83.5663 16.0466C83.598 16.0466 83.6298 16.0466 83.6615 16.0466C83.6298 16.015 83.598 15.9833 83.5663 15.9833H83.598C83.6298 16.015 83.6615 16.0466 83.6933 16.0466V16.0783C83.6615 16.0783 83.6298 16.11 83.598 16.11C83.6615 16.1733 83.6615 16.11 83.7568 16.1733C83.9473 16.2683 84.233 16.585 84.36 16.7433C84.4553 16.9966 84.5505 17.25 84.6458 17.4716C84.7728 17.6933 85.0268 17.915 85.122 18.1366C85.1855 18.1366 85.122 18.1366 85.1855 18.1366C85.1855 18.1683 85.1538 18.2316 85.1855 18.295C85.249 18.3583 85.3443 18.4533 85.4395 18.485C85.4078 18.58 85.4078 18.5483 85.4078 18.675C85.5348 18.8333 85.63 18.9916 85.6935 19.2133C85.7253 19.2133 85.7253 19.245 85.757 19.245H85.7888C85.7888 19.2133 85.757 19.15 85.757 19.1183C85.757 19.1183 85.757 19.1183 85.7888 19.1183C85.8205 19.2133 85.8523 19.2766 85.9158 19.3716C85.9158 19.3716 85.9475 19.3716 85.9475 19.4033C85.9475 19.3716 85.9158 19.3083 85.9158 19.2766C85.9475 19.3083 85.9793 19.3716 86.011 19.4033H86.0428C85.9475 19.245 85.884 19.055 85.7888 18.865C85.8205 18.8966 85.8205 18.9283 85.8523 18.9283C85.8523 18.9283 85.884 18.9283 85.884 18.96V18.9283C85.9158 18.8333 85.7888 18.7383 85.757 18.675H85.7888C85.8205 18.7066 85.8523 18.7383 85.9158 18.8016C85.884 18.7383 85.8523 18.675 85.8205 18.58C85.884 18.6433 85.9475 18.7066 86.011 18.77C85.9158 18.58 85.6935 18.2 85.503 18.105C85.5348 18.0416 85.503 18.0733 85.5665 18.0733C85.503 17.8516 85.1855 17.6616 85.1538 17.345C85.1538 17.345 85.1538 17.345 85.1855 17.345C85.2173 17.535 85.3443 17.4716 85.4078 17.5666H85.4395C85.376 17.4716 85.3125 17.3766 85.249 17.2816C85.2808 17.25 85.3125 17.2183 85.3443 17.2183C85.4395 17.155 85.4713 17.345 85.5983 17.345C85.5983 17.4083 85.63 17.44 85.63 17.5033C85.6618 17.3133 85.63 17.0283 85.5983 16.965C85.503 16.87 85.4395 16.7116 85.376 16.585C85.2173 16.3633 85.122 16.1416 84.995 15.92C85.8205 17.06 86.5825 18.2 87.2175 19.3716C82.4868 8.28829 71.4695 0.498291 58.6425 0.498291C45.8155 0.498291 34.7983 8.25663 30.0675 19.34C31.528 16.4266 33.7823 13.4183 36.7033 10.695ZM83.5028 16.015C83.471 15.9516 83.5028 15.9833 83.471 15.9516V16.015H83.5028ZM48.0698 54.7116C48.0698 54.7116 48.0698 54.7433 48.038 54.7433H48.0698C48.0698 54.7116 48.0698 54.7116 48.0698 54.7116ZM85.4078 17.3766C85.4078 17.3133 85.4395 17.345 85.376 17.3133C85.376 17.3133 85.4078 17.345 85.4078 17.3766ZM85.4395 17.5983C85.4713 17.63 85.4713 17.63 85.503 17.6616V17.5983C85.4713 17.5983 85.4395 17.5666 85.4395 17.5666V17.5983ZM85.2173 17.25C85.249 17.25 85.249 17.2816 85.2808 17.2816C85.249 17.2183 85.2808 17.2183 85.2173 17.1866V17.25ZM85.6935 18.1683C85.6618 18.1366 85.6618 18.105 85.63 18.0733V18.1366C85.63 18.1366 85.6618 18.1683 85.6935 18.1683ZM51.975 58.385C51.975 58.385 51.975 58.3533 52.0068 58.3533C51.9433 58.3533 51.848 58.3216 51.7845 58.3216C51.7845 58.385 51.8798 58.385 51.975 58.385ZM60.8333 48.315H60.9285C60.8968 48.2833 60.8968 48.2833 60.865 48.2516C60.865 48.2516 60.8333 48.2833 60.8015 48.2833C60.8015 48.2833 60.8015 48.2833 60.8333 48.315ZM47.8793 54.5216H47.9428C47.911 54.49 47.911 54.49 47.8793 54.4583V54.5216ZM51.3083 58.48C51.2448 58.4166 51.213 58.385 51.1178 58.3533C51.1813 58.4483 51.213 58.48 51.3083 58.48ZM61.0238 48.2516H60.992V48.2833C60.992 48.2833 60.992 48.2833 61.0238 48.2516ZM82.3915 15.9833H82.3598V16.0466C82.3915 16.0466 82.4233 16.0466 82.455 16.0466C82.4233 16.015 82.4233 16.015 82.3915 15.9833ZM82.3915 16.6483L82.4233 16.68C82.4233 16.4266 82.2963 15.9833 82.1375 15.8883C82.1693 15.92 82.1693 15.9833 82.201 16.015C82.1693 16.0466 82.1375 16.0466 82.1058 16.0783C82.1058 16.3 82.2645 16.585 82.3915 16.6483ZM61.9763 48.41C61.9445 48.1566 62.2938 48.2516 62.4843 48.1566C62.6113 48.0616 62.6113 47.745 62.8335 47.65C63.151 47.4916 63.151 47.3966 63.3733 47.2383C63.4685 47.175 63.5638 47.175 63.6273 47.08C63.8495 46.7 63.6908 46.5416 64.167 46.3833C64.2305 46.13 64.294 45.94 64.4528 45.75C64.5163 45.655 64.6115 45.5916 64.675 45.4966C64.7703 45.275 64.7068 45.085 64.802 44.8633C64.8973 44.6416 65.0878 44.4833 65.1195 44.1983C65.3418 44.1033 65.5005 44.135 65.7228 43.9766C66.0085 43.7233 66.2943 43.47 66.58 43.2166C66.6753 43.185 66.7705 43.185 66.8975 43.1533C67.0245 43.0583 67.1515 42.9633 67.2785 42.8366C67.7548 42.52 68.1358 42.2666 68.3263 41.665C68.3263 41.5383 68.3263 41.4433 68.358 41.3166C68.4215 41.095 68.6755 39.7016 68.6438 39.7016C55.4675 39.67 45.7203 39.8283 45.7203 39.8283C45.9108 40.1766 46.1013 40.62 46.387 40.905C46.9268 41.475 47.8475 41.76 48.1968 42.4883C48.3555 42.6466 48.5143 42.805 48.7048 42.9633C48.7048 43.0583 48.673 43.1216 48.673 43.185C48.7048 43.4066 48.8 43.7233 48.7683 43.9766C48.7683 44.0716 48.7048 44.23 48.7365 44.3566C48.7683 44.42 48.7683 44.515 48.8 44.5783C48.7683 44.8 48.673 45.0533 48.673 45.3383C48.6095 45.37 48.6413 45.3383 48.546 45.3383C48.546 45.4333 48.546 45.4966 48.546 45.5916H48.6413C48.6095 45.75 48.6095 45.9083 48.5778 46.035C48.6095 46.1933 48.6095 46.3516 48.6413 46.4783C48.6095 46.5416 48.5143 46.5733 48.5143 46.6683C48.5143 46.7316 48.546 46.795 48.546 46.8266C48.5143 47.1433 48.4508 47.3966 48.3555 47.5866C48.2603 47.7766 48.3555 47.9666 48.1968 48.0616C48.2285 48.315 48.292 48.4416 48.292 48.695C48.2285 48.7266 48.2603 48.7266 48.165 48.7266C48.1333 49.2966 48.419 49.6133 48.2285 50.025C48.2603 50.025 48.3238 50.215 48.292 50.2783C48.165 50.6583 47.9745 51.0066 47.9428 51.45C47.911 51.45 47.911 51.4183 47.8793 51.4183C47.8793 51.4816 47.8793 51.5766 47.8793 51.64C47.8158 51.6083 47.784 51.6083 47.7205 51.5766C47.7205 51.5766 47.7205 51.5766 47.6888 51.6083C47.7205 51.925 47.8793 52.2733 48.0063 52.5266C48.0063 52.875 47.784 53.0016 48.038 53.4133V53.4766C48.0063 53.445 47.9745 53.445 47.9428 53.4133C47.8793 53.5716 47.9745 53.7616 47.9428 53.9516C48.0063 54.015 48.0698 54.0466 48.165 54.0783C48.165 54.0783 48.1968 54.0783 48.2285 54.0466C48.2603 53.8566 48.2603 53.635 48.165 53.5083L48.1968 53.4766C48.2285 53.5083 48.292 53.5083 48.3238 53.54H48.3555C48.3555 53.4766 48.3873 53.4766 48.3238 53.4766C48.3238 53.445 48.3555 53.445 48.3555 53.4133C48.3873 53.445 48.419 53.4766 48.4508 53.5083C48.419 53.54 48.419 53.54 48.3873 53.5716C48.4825 53.635 48.5143 53.825 48.419 53.8566C48.4508 53.8883 48.4825 53.92 48.5143 53.92C48.4508 54.205 48.5143 54.4266 48.5143 54.7116H48.4825C48.4508 54.6166 48.3873 54.3633 48.419 54.3316C48.3555 54.2366 48.292 54.1733 48.165 54.1416C48.1015 54.205 48.0698 54.3316 48.0698 54.4583C48.1015 54.49 48.165 54.5533 48.1968 54.585C48.1968 54.68 48.1968 54.7433 48.165 54.8383H48.038C48.0698 54.87 48.0698 54.9016 48.1015 54.9333C48.0698 54.965 48.0063 54.9966 47.9745 55.0283C47.9745 55.06 47.9745 55.06 47.9745 55.0916C48.0063 55.1233 48.0698 55.1233 48.1015 55.155C48.1333 55.1233 48.1333 55.1233 48.165 55.0916C48.2285 55.155 48.3873 55.1866 48.4825 55.25C48.4508 55.25 48.4508 55.25 48.419 55.2183C48.4508 55.2816 48.4508 55.25 48.4825 55.2816C48.4508 55.345 48.4508 55.4083 48.419 55.44C48.3555 55.4083 48.3555 55.3766 48.2603 55.3766V55.4083C48.292 55.44 48.292 55.44 48.3238 55.4716C48.292 55.5033 48.2603 55.5033 48.2285 55.535C48.3238 55.6933 48.3555 55.9466 48.4508 56.105C48.546 56.1366 48.6095 56.2 48.673 56.2316C48.6413 56.2 48.5778 56.2 48.546 56.2V56.2316C48.5778 56.295 48.5778 56.3583 48.6095 56.4216C48.6413 56.4216 48.673 56.4533 48.7048 56.4533C48.7365 56.39 48.7365 56.3583 48.7683 56.295C48.8 56.3266 48.8 56.39 48.8318 56.4216H48.7683C48.7683 56.4216 48.7683 56.4216 48.7683 56.4533C48.8318 56.5483 48.8635 56.6116 48.8635 56.7383C48.927 56.7066 48.9905 56.7066 49.054 56.675C49.0858 56.7066 49.0858 56.7066 49.1493 56.7383L49.1175 56.8016C49.054 56.77 48.9905 56.77 48.9588 56.7383V56.77C49.0223 56.865 49.1175 56.96 49.2128 57.0233C49.2128 56.9916 49.181 56.96 49.181 56.96C49.2763 57.055 49.3715 57.1183 49.4668 57.2133V57.245C49.3715 57.2133 49.2763 57.1816 49.181 57.1183C49.308 57.2766 49.4033 57.3083 49.5303 57.34C49.5303 57.3716 49.5303 57.34 49.4985 57.4033C49.6255 57.53 50.1653 57.91 50.324 57.8466C50.324 57.91 50.324 57.8783 50.2923 57.91C50.451 58.0683 50.959 58.2583 51.213 58.3216V58.29C51.1813 58.2583 51.1178 58.195 51.086 58.1633C51.213 58.195 51.3083 58.195 51.4035 58.2266C51.4035 58.29 51.4035 58.2583 51.467 58.2583L51.4353 58.2266C51.467 58.2266 51.4988 58.2583 51.5305 58.29V58.2266C51.594 58.2266 51.6893 58.2583 51.7528 58.2583H51.7845C51.7845 58.2583 51.7845 58.2266 51.8163 58.2266V58.1633C51.34 58.1 51.213 57.6883 50.832 57.5933C50.8638 57.5616 50.8638 57.5616 50.8955 57.53C50.8003 57.4033 50.6415 57.435 50.5463 57.3083C50.5463 57.3083 50.5145 57.3083 50.5145 57.2766C50.5463 57.2766 50.5463 57.245 50.578 57.245C50.6733 57.2766 50.7368 57.3083 50.832 57.34C50.705 57.1816 50.4828 57.055 50.451 56.77C50.451 56.77 50.451 56.7383 50.4828 56.7383C50.5463 56.7066 50.6415 56.7066 50.705 56.675C50.7685 56.6116 50.7368 56.5166 50.7368 56.39C50.832 56.3266 51.086 56.2633 51.1495 56.1683C51.1813 56.1366 51.1813 56.01 51.1495 55.915C50.8638 55.725 50.451 55.6616 50.5463 55.2816C50.6733 55.1866 50.8638 55.155 51.0225 55.2183H51.086C51.0543 55.155 51.086 55.1866 51.0225 55.155C51.0543 55.0916 51.086 55.0916 51.1495 55.06C51.1495 54.965 51.1178 54.87 51.086 54.775C51.1495 54.68 51.213 54.6166 51.4035 54.6166C51.3718 54.5216 51.2448 54.5216 51.213 54.4583C51.213 54.4583 51.1813 54.4583 51.1813 54.4266C51.213 54.395 51.2448 54.395 51.3083 54.3633C51.4035 54.4266 51.4353 54.4583 51.467 54.5533C51.4988 54.5533 51.5623 54.5533 51.594 54.585C51.594 54.5533 51.6258 54.5533 51.6575 54.5216C51.6575 54.4266 51.6575 54.3633 51.594 54.3316C51.594 54.3316 51.5623 54.3 51.5623 54.2683C51.4988 54.2683 51.4353 54.2683 51.3718 54.3C51.4035 54.3316 51.4353 54.3316 51.467 54.3633V54.395C51.4353 54.395 51.4035 54.3633 51.34 54.3633C51.2765 54.3316 51.2765 54.2683 51.1813 54.2366C51.1178 54.1416 51.1178 53.92 51.086 53.7933C51.213 53.635 51.4988 53.9516 51.6893 54.015C51.8163 54.015 51.9433 54.015 52.102 53.9833C52.1338 53.92 52.1655 53.8566 52.1973 53.7933C52.1655 53.7933 52.1655 53.825 52.1338 53.825C52.102 53.7933 52.0703 53.7933 52.0703 53.7616C52.1655 53.635 52.2608 53.5083 52.1973 53.35C52.229 53.35 52.2608 53.3816 52.2608 53.3816H52.2925C52.2925 53.35 52.2608 53.3183 52.2608 53.2866C52.5148 53.3816 53.5943 53.54 53.88 53.3816C53.9435 53.35 54.1975 53.0333 54.2928 52.97C54.2928 52.875 54.2928 52.8116 54.2928 52.7166C54.134 52.6533 54.0705 52.6533 54.0705 52.4633C54.1023 52.4316 54.1658 52.3683 54.1975 52.3366C54.134 52.0516 53.8165 51.9883 53.6895 51.7666C53.7213 51.735 53.753 51.7033 53.753 51.6716C53.7848 51.6716 53.7848 51.6716 53.8165 51.64C53.8483 51.7033 53.9118 51.735 53.9435 51.83C54.0388 51.8616 54.1658 51.8616 54.261 51.8933C54.3563 51.9566 54.4833 52.1466 54.6103 52.1783C54.7055 52.21 54.8008 52.1466 54.896 52.1783C54.9913 52.21 55.023 52.305 55.1818 52.305C55.531 52.2733 55.5945 52.115 55.785 51.9566C55.912 51.8933 56.0073 51.8616 56.1343 51.7983C56.2295 51.6716 56.3248 51.5766 56.3883 51.45C56.6105 51.355 56.8328 51.26 57.055 51.165C57.309 50.975 57.4678 50.6583 57.7218 50.4683C58.0393 50.215 58.4203 50.1833 58.5473 49.74C58.5155 49.74 58.4838 49.74 58.4838 49.74C58.5473 49.5816 58.5473 49.36 58.6425 49.1066C58.706 48.9166 59.9125 48.315 60.23 48.41C60.2935 48.4733 60.357 48.505 60.4205 48.5683C60.4205 48.5366 60.4523 48.505 60.4523 48.4416C60.4205 48.4416 60.4205 48.4416 60.3888 48.41V48.3783C60.5475 48.3466 60.7063 48.125 60.8333 48.1566C60.8968 48.0933 60.8968 48.125 60.8333 48.0616V47.9983C61.1508 47.9983 61.754 48.125 62.0715 48.2516C61.9128 48.41 61.9128 48.41 61.9763 48.41ZM82.963 17.8516C82.8995 17.4716 82.7408 17.06 82.5185 16.775C82.5185 16.775 82.4868 16.7433 82.455 16.7433C82.455 16.8066 82.4233 16.8383 82.4233 16.9016C82.3598 16.9333 82.3915 16.9333 82.2963 16.9016C82.2963 17.0916 82.5185 17.2816 82.582 17.44C82.6455 17.5666 82.6138 17.725 82.6455 17.82C82.709 17.8516 82.7408 17.915 82.8678 17.9466C82.8678 17.915 82.8678 17.8516 82.836 17.82C82.8678 17.82 82.8995 17.82 82.963 17.8516ZM72.676 31.9116L70.644 31.8483L70.6758 37.01C70.6758 37.0733 70.644 37.105 70.6123 37.1366C70.5805 37.1683 70.517 37.2 70.4853 37.2L67.3738 37.105C67.2785 37.105 67.1833 37.01 67.1833 36.915L67.1198 22.6966C67.1198 22.6333 67.1515 22.6016 67.1833 22.57C67.215 22.5383 67.2785 22.5066 67.3103 22.5066L75.1208 22.7283C77.7243 22.8233 79.2165 24.47 79.2165 27.2566C79.2165 29.9483 77.7878 31.0883 76.4543 31.5316L79.7563 37.1683C79.788 37.2316 79.788 37.295 79.7563 37.3583C79.7245 37.4216 79.661 37.4533 79.5975 37.4533L75.9145 37.3266C75.851 37.3266 75.7875 37.295 75.7558 37.2316L72.676 31.9116ZM73.1523 28.8083C73.2793 28.8083 73.3745 28.8083 73.4698 28.8083C74.3905 28.8083 74.9303 28.6816 75.2478 28.365C75.47 28.1433 75.597 27.7633 75.597 27.1616C75.597 26.4966 75.47 25.8633 73.9143 25.8316L70.6123 25.7366V28.7133L73.1523 28.8083ZM58.0393 10.4416C58.071 10.4416 58.0393 10.4416 58.071 10.4416H58.0393ZM56.674 3.15829V3.22163C56.7058 3.22163 56.7375 3.22163 56.801 3.22163C56.7375 3.18996 56.7058 3.18996 56.674 3.15829ZM56.4835 3.37996C56.547 3.37996 56.5788 3.37996 56.6423 3.41163C56.6423 3.41163 56.6423 3.41163 56.6423 3.37996C56.6423 3.37996 56.6423 3.34829 56.6423 3.31663C56.547 3.28496 56.4518 3.25329 56.3565 3.25329C56.3565 3.25329 56.3565 3.28496 56.3248 3.28496C56.3883 3.31663 56.42 3.34829 56.4835 3.37996ZM58.1663 2.55662C58.198 2.52496 58.2298 2.49329 58.2615 2.46163V2.39829C58.1028 2.36662 57.9758 2.30329 57.7535 2.30329C57.69 2.33496 57.5948 2.36663 57.5313 2.36663C57.5313 2.39829 57.5313 2.42996 57.4995 2.46163V2.49329C57.6265 2.55663 58.0075 2.65162 58.1663 2.55662ZM55.6898 3.44329C55.6263 3.47496 55.5628 3.47496 55.531 3.50663C55.531 3.53829 55.4993 3.53829 55.4993 3.56996C55.531 3.60163 55.531 3.63329 55.5628 3.66496C55.6898 3.69663 55.7533 3.60163 55.8803 3.56996C55.912 3.53829 55.912 3.53829 55.9438 3.50663C55.8168 3.47496 55.785 3.44329 55.6898 3.44329ZM55.8803 3.94996C55.8485 3.91829 55.785 3.91829 55.7533 3.91829L55.785 3.94996H55.8803ZM54.4515 3.22163C54.4515 3.25329 54.4515 3.28496 54.4515 3.34829C54.7055 3.31663 54.9595 3.34829 55.1818 3.28496C55.1818 3.28496 55.1818 3.25329 55.2135 3.25329C55.0548 3.22163 54.896 3.18996 54.7373 3.18996C54.642 3.18996 54.5468 3.18996 54.4515 3.22163ZM60.484 4.58329C60.4523 4.55163 60.4523 4.55163 60.3888 4.51996C60.4205 4.55163 60.4205 4.55163 60.484 4.58329ZM59.3093 4.70996L59.2775 4.74163C59.341 4.77329 59.4363 4.77329 59.5315 4.77329C59.5315 4.77329 59.5315 4.74163 59.5633 4.74163C59.5315 4.74163 59.4998 4.70996 59.468 4.67829C59.4363 4.67829 59.4045 4.67829 59.3728 4.64663C59.341 4.67829 59.341 4.70996 59.3093 4.70996ZM56.8963 3.41163H56.9598C56.9598 3.41163 56.9598 3.37996 56.9915 3.37996C56.9598 3.34829 56.9598 3.34829 56.928 3.31663C56.8645 3.31663 56.801 3.28496 56.7693 3.28496C56.7693 3.34829 56.8328 3.37996 56.8963 3.41163ZM64.2623 10.6H64.1988C64.167 10.6 64.1353 10.6316 64.1353 10.6316C64.1353 10.6633 64.1353 10.6633 64.1035 10.695H64.167C64.1988 10.695 64.2305 10.6633 64.2623 10.6633V10.6ZM58.325 3.56996C58.2933 3.53829 58.2933 3.53829 58.2615 3.53829V3.56996C58.2933 3.56996 58.325 3.56996 58.325 3.56996ZM58.833 4.42496H58.8013V4.45663C58.833 4.45663 58.833 4.42496 58.833 4.42496ZM87.8208 28.5233C87.2493 28.3016 86.7095 28.0483 86.2968 27.8266C85.5983 27.4466 85.249 27.0983 85.249 26.75C85.249 26.655 85.2808 26.4966 85.4395 26.3383C85.5983 26.18 85.9793 25.9583 86.7413 26.0216C88.8685 26.1483 91.1863 27.5416 91.853 27.985C91.9165 28.0166 91.98 28.0166 92.0435 27.985C92.107 27.9533 92.1388 27.89 92.1388 27.8266L92.107 24.66C92.107 24.5966 92.0753 24.5333 92.0118 24.5016C90.9323 23.8683 88.6463 22.8866 86.7413 22.7916C85.122 22.6966 83.6615 23.1716 82.7408 24.09C82.0423 24.7866 81.693 25.7366 81.693 26.845C81.693 30.2016 84.741 31.4366 86.9635 32.355C87.5033 32.5766 87.9795 32.7666 88.3923 32.9883C89.0908 33.3366 89.44 33.6533 89.44 33.97C89.44 34.255 89.3765 34.445 89.186 34.6033C88.8368 34.9516 88.17 35.0783 87.154 35.0466C86.0745 34.9833 84.1695 34.1283 82.1693 32.7983C82.1058 32.7666 82.0423 32.7666 81.9788 32.7983C81.9153 32.83 81.8835 32.8933 81.8835 32.9566L81.9153 36.25C81.9153 36.3133 81.947 36.3766 82.0105 36.4083C82.6455 36.82 84.9633 38.2133 87.154 38.3083C87.3445 38.3083 87.5668 38.34 87.7573 38.34C89.567 38.34 90.964 37.865 91.853 36.9783C92.6468 36.1866 93.0278 35.11 93.0278 33.78C92.996 30.6766 90.0115 29.4416 87.8208 28.5233ZM58.4838 60.4433C44.8313 60.4433 33.2108 52.3366 28.9245 41.0316C33.0203 53.16 43.2438 62.5966 58.452 62.5966C72.803 62.5966 84.106 53.0333 88.1383 40.7783C83.9473 52.21 72.2633 60.4433 58.4838 60.4433ZM107.379 38.9416C107.411 39.005 107.411 39.0683 107.347 39.1C107.315 39.1633 107.252 39.1633 107.188 39.1633L104.109 38.9416C104.045 38.9416 103.982 38.8783 103.95 38.815L102.902 35.965L97.9173 35.585L96.8695 38.2766C96.8378 38.34 96.7743 38.4033 96.679 38.4033L94.1073 38.2133C94.0438 38.2133 93.9803 38.1816 93.9485 38.1183C93.9168 38.055 93.9168 37.9916 93.9485 37.96L99.473 24.0266C99.5048 23.9633 99.5683 23.9 99.6635 23.9L101.823 24.0583C101.886 24.0583 101.95 24.1216 101.981 24.185L107.379 38.9416ZM101.727 32.735L100.457 29.2516L99.1555 32.545L101.727 32.735ZM118.364 37.2C118.364 37.105 118.301 37.01 118.206 37.01L112.173 36.4716L112.11 25.0716C112.11 24.9766 112.046 24.8816 111.951 24.8816L109.284 24.6283C109.22 24.6283 109.189 24.6283 109.125 24.6916C109.093 24.7233 109.062 24.7866 109.062 24.8183L109.157 39.195C109.157 39.29 109.22 39.385 109.316 39.385L118.142 40.2083H118.174C118.206 40.2083 118.269 40.2083 118.301 40.145C118.333 40.1133 118.364 40.05 118.364 40.0183V37.2ZM52.864 5.94496C52.9275 6.03996 53.1815 6.13496 53.2768 6.16663C53.3085 6.10329 53.2768 6.07163 53.2768 6.00829C53.1815 5.94496 53.0545 5.94496 52.9275 5.91329C52.9275 5.91329 52.8958 5.91329 52.864 5.94496ZM26.2893 23.3933C26.2575 23.3616 26.194 23.33 26.1623 23.33L23.8445 23.4883C23.7493 23.4883 23.6858 23.5833 23.6858 23.6783L23.7175 32.0383L17.5898 24.0266C17.558 23.9633 17.4945 23.9633 17.431 23.9633L14.5418 24.1533C14.4465 24.1533 14.383 24.2483 14.383 24.3433L14.4465 38.5616C14.4465 38.625 14.4783 38.6566 14.51 38.6883C14.5418 38.72 14.6053 38.7516 14.637 38.7516L16.9548 38.5933C17.05 38.5933 17.1135 38.4983 17.1135 38.4033L17.0818 29.3466L23.654 38.055C23.6858 38.0866 23.7493 38.1183 23.8128 38.1183L26.194 37.96C26.2893 37.96 26.3528 37.865 26.3528 37.77L26.2893 23.5516C26.3528 23.4883 26.321 23.4566 26.2893 23.3933ZM59.595 8.50996C59.976 8.76329 60.2618 8.95329 60.7698 9.11163H60.8015V9.04829C60.5475 8.82663 60.0713 8.50996 59.6268 8.47829C59.595 8.47829 59.595 8.50996 59.595 8.50996ZM59.849 10.125C59.8808 10.1883 59.9125 10.1883 59.976 10.22C60.1348 10.1883 60.103 10.0933 60.3253 10.125C60.3253 10.125 60.3253 10.125 60.357 10.0933V10.0616C60.23 10.03 59.5315 9.87163 59.5315 9.87163C59.468 9.83996 59.4998 9.87163 59.468 9.77663C59.3728 9.71329 59.4363 9.74496 59.4363 9.61829C59.4045 9.61829 59.4045 9.61829 59.3728 9.58663C59.3093 9.61829 59.2458 9.64996 59.1823 9.68163C59.1823 9.68163 59.1823 9.71329 59.1505 9.71329C59.341 9.87163 59.4998 9.96663 59.7538 10.0616C59.8808 10.125 59.8173 10.0933 59.849 10.125ZM11.6208 24.47C11.589 24.4383 11.5255 24.4066 11.462 24.4383L8.76327 24.6916C8.66802 24.6916 8.60452 24.7866 8.60452 24.8816L8.63627 33.4C8.63627 35.4583 7.81077 36.5666 6.15977 36.725C6.03277 36.7566 5.93752 36.7566 5.81052 36.7566C4.41352 36.7566 3.68327 35.8066 3.68327 33.9383L3.65152 25.42C3.65152 25.3566 3.61977 25.325 3.58802 25.2933C3.55627 25.2616 3.49277 25.23 3.46102 25.23L0.762266 25.4833C0.667016 25.4833 0.603516 25.5783 0.603516 25.6733L0.635266 34.2866C0.667016 38.0233 2.28627 40.0183 5.39777 40.0183C5.65177 40.0183 5.90577 40.0183 6.19152 39.9866C11.0175 39.5116 11.716 35.585 11.716 33.2733L11.6843 24.66C11.6843 24.565 11.6843 24.5016 11.6208 24.47ZM55.8168 10.9166H55.785V10.9483C55.785 10.9483 55.8168 10.9483 55.8168 10.9166ZM29.6865 37.7383C29.7183 37.77 29.7818 37.8016 29.8135 37.8016L32.8933 37.6433C32.9885 37.6433 33.0838 37.5483 33.0838 37.4533L33.0203 23.2666C33.0203 23.2033 32.9885 23.1716 32.9568 23.14C32.925 23.1083 32.8615 23.0766 32.8298 23.0766L29.7183 23.235C29.623 23.235 29.5595 23.33 29.5595 23.425L29.6548 37.6116C29.623 37.6433 29.6548 37.675 29.6865 37.7383ZM57.69 3.75996C57.6583 3.72829 57.563 3.69663 57.4995 3.69663C57.5313 3.75996 57.563 3.75996 57.6265 3.75996H57.69ZM75.089 10.03C75.089 10.03 75.0573 10.0616 75.089 10.03L75.0573 10.0616C75.0573 10.0616 75.089 10.0616 75.089 10.0933C75.089 10.0933 75.089 10.0933 75.1208 10.0616C75.089 10.0616 75.089 10.0616 75.089 10.03ZM74.8668 9.87163C74.8668 9.83996 74.8668 9.83996 74.8668 9.80829H74.835C74.835 9.80829 74.835 9.80829 74.8033 9.80829V9.83996C74.835 9.87163 74.8668 9.87163 74.8668 9.87163ZM75.1843 10.2516C75.2478 10.22 75.2478 10.0933 75.1843 10.03C75.1525 10.0933 75.1208 10.125 75.0573 10.1566C75.089 10.22 75.1208 10.22 75.1843 10.2516ZM74.8985 9.71329C74.8668 9.71329 74.835 9.68163 74.835 9.68163C74.835 9.71329 74.8668 9.71329 74.8985 9.71329C74.8668 9.74496 74.8668 9.71329 74.8985 9.71329ZM74.7715 9.87163V9.93496H74.8033C74.8033 9.87163 74.835 9.90329 74.7715 9.87163ZM75.9463 10.79C75.9463 10.79 75.9463 10.8216 75.978 10.8216C76.0098 10.8216 76.0415 10.8216 76.0733 10.79C76.0733 10.7583 76.0733 10.7583 76.105 10.7266C76.0733 10.695 76.0415 10.6633 76.0098 10.6316C75.978 10.7266 75.978 10.7583 75.9463 10.79ZM63.0875 10.5366C63.0875 10.5683 63.1193 10.5683 63.1193 10.6C63.1193 10.5683 63.151 10.5683 63.151 10.5683C63.151 10.5683 63.1193 10.5366 63.0875 10.5366ZM63.0875 10.6316C63.1193 10.6316 63.1193 10.6316 63.151 10.6633C63.151 10.6633 63.1828 10.6633 63.1828 10.6316C63.151 10.6316 63.151 10.6 63.1193 10.6C63.0875 10.6316 63.0875 10.6316 63.0875 10.6316ZM74.708 9.4283C74.6763 9.49163 74.6763 9.45996 74.6445 9.52329C74.7398 9.61829 74.9303 9.68163 75.0255 9.68163C75.0255 9.71329 75.0573 9.71329 75.0573 9.74496C75.0255 9.77663 74.9938 9.77663 74.962 9.80829C74.9938 9.90329 75.0255 9.90329 75.0255 9.99829C75.089 9.99829 75.1525 9.96663 75.1843 9.96663C75.1843 9.93496 75.1843 9.90329 75.216 9.87163V9.83996C75.216 9.83996 75.216 9.83996 75.2478 9.83996C75.2795 10.03 75.3748 10.1566 75.4383 10.3466H75.5018C75.5018 10.3466 75.5018 10.315 75.5335 10.315C75.5335 10.2833 75.5018 10.2516 75.5018 10.22C75.5335 10.2516 75.5653 10.2516 75.597 10.2833C75.5653 10.22 75.5653 10.1566 75.5335 10.125C75.597 10.1566 75.6288 10.1883 75.6605 10.22C75.6923 10.2833 75.6923 10.3783 75.6605 10.4733C75.724 10.505 75.7558 10.5683 75.8193 10.6H75.851C75.8193 10.5683 75.8193 10.5683 75.8193 10.5366C75.8828 10.5683 75.9145 10.5683 75.978 10.6V10.5366C76.105 10.5683 76.1368 10.5683 76.232 10.4733C76.359 10.6 76.2955 10.8533 76.5813 10.79C76.5813 10.9166 76.613 10.98 76.6765 11.075C76.5495 11.17 76.4225 11.1066 76.2638 11.075C76.2955 11.17 76.3273 11.17 76.3908 11.2333C76.359 11.265 76.3273 11.2966 76.3273 11.3283C76.3273 11.3283 76.3273 11.36 76.359 11.36C76.3908 11.3283 76.4543 11.3283 76.486 11.2966C76.5495 11.36 76.5813 11.4233 76.613 11.4866C76.5813 11.5816 76.5178 11.645 76.3908 11.645C76.359 11.6766 76.359 11.6766 76.3273 11.7083C76.3908 11.7716 76.4543 11.8033 76.5178 11.8666C76.7083 11.7716 76.867 11.8983 77.0575 11.9616C77.0893 11.93 77.1528 11.8983 77.1845 11.8983C77.1528 11.9616 77.1528 11.9616 77.1528 12.025H76.8035C76.8035 12.1833 76.7083 12.3416 76.5813 12.4683V12.5C76.6765 12.5 76.6765 12.5 76.7718 12.5316C76.8035 12.4683 76.8035 12.405 76.9305 12.3733C77.0258 12.3416 77.121 12.405 77.2163 12.4366C77.2163 12.3733 77.2163 12.2783 77.248 12.2466C77.248 12.2466 77.7878 12.2783 77.8195 12.31H77.883C77.883 12.2783 77.8513 12.2466 77.8513 12.215C78.1053 12.215 78.2323 12.215 78.4545 12.12C78.4545 12.12 78.4545 12.0883 78.4863 12.0883C78.4863 12.0566 78.4545 12.025 78.4545 11.9933C78.3593 11.9933 78.2958 11.9933 78.2323 11.9616C78.264 11.8983 78.3593 11.7716 78.3275 11.6766C78.2958 11.5183 77.9783 11.17 77.7878 11.3916C77.7878 11.3916 77.756 11.3916 77.7243 11.36C77.629 11.1383 77.4703 10.885 77.1845 10.7266C77.0893 10.695 76.9623 10.6316 76.867 10.6C76.5813 10.3466 76.4543 10.125 76.0415 10.125C76.0733 10.0933 76.1368 10.0616 76.1685 10.03C76.1368 9.99829 76.105 9.96663 76.0733 9.96663C76.1368 9.83996 76.0733 9.71329 76.0733 9.58663C75.9145 9.4283 75.6288 9.45996 75.4383 9.52329C75.4383 9.42829 75.47 9.45996 75.3748 9.4283C75.4065 9.36496 75.4383 9.30163 75.5018 9.26996C75.5018 9.23829 75.47 9.20663 75.47 9.14329C75.2795 9.11163 75.1208 9.17496 74.962 9.14329C74.9303 9.17496 74.9303 9.20663 74.962 9.26996C74.9303 9.33329 74.9303 9.33329 74.9938 9.4283C74.9938 9.4283 74.962 9.42829 74.962 9.45996C74.8985 9.45996 74.9303 9.42829 74.8985 9.49163C74.9303 9.55496 74.962 9.61829 74.9938 9.64996C74.835 9.55496 74.7715 9.49163 74.708 9.4283ZM51.9115 13.355H51.975L51.9433 13.3233C51.9433 13.3233 51.9433 13.355 51.9115 13.355ZM63.1828 10.6633V10.695L63.2145 10.6633C63.1828 10.6633 63.1828 10.6633 63.1828 10.6633ZM61.7858 6.54663C61.8175 6.54663 61.8175 6.51496 61.8175 6.51496C61.7858 6.51496 61.754 6.51496 61.7223 6.48329C61.754 6.54663 61.7223 6.48329 61.7858 6.54663ZM74.4858 9.14329C74.454 9.17496 74.3905 9.23829 74.3588 9.26996C74.4223 9.33329 74.454 9.36496 74.454 9.39663C74.4858 9.39663 74.4858 9.4283 74.5175 9.4283C74.5493 9.39663 74.6128 9.36496 74.6445 9.33329C74.6445 9.26996 74.6128 9.20663 74.6128 9.17496C74.5493 9.17496 74.5175 9.14329 74.4858 9.14329ZM80.042 10.5683C80.042 10.6 80.0738 10.6316 80.0738 10.6633C80.1055 10.695 80.169 10.695 80.2008 10.695C80.1373 10.6 80.1055 10.6 80.042 10.5683ZM60.5475 4.61496C60.5475 4.61496 60.5158 4.61496 60.5475 4.61496C60.5793 4.67829 60.6745 4.74163 60.7698 4.77329C60.8015 4.74163 60.8333 4.74163 60.865 4.70996C60.865 4.67829 60.8333 4.64663 60.8015 4.61496C60.738 4.58329 60.7063 4.58329 60.6745 4.58329C60.6428 4.61496 60.6428 4.61496 60.5475 4.61496ZM61.0238 2.99996C61.0238 2.96829 60.992 2.96829 61.0238 2.99996C60.992 2.96829 60.992 2.99996 60.992 2.99996H61.0238ZM78.8355 9.77663C78.8038 9.71329 78.8355 9.74496 78.772 9.71329C78.8038 9.74496 78.8355 9.77663 78.8355 9.77663ZM62.643 7.33829C62.6748 7.33829 62.6748 7.33829 62.643 7.33829C62.643 7.30663 62.6113 7.30663 62.6113 7.27496C62.643 7.30663 62.643 7.30663 62.643 7.33829ZM74.5175 9.71329V9.74496C74.5175 9.74496 74.5493 9.74496 74.581 9.71329V9.68163L74.5175 9.71329ZM78.899 11.455V11.4866H78.9308C78.9308 11.455 78.9308 11.4866 78.899 11.455ZM74.5175 9.45996C74.4858 9.45996 74.4858 9.4283 74.454 9.4283C74.4223 9.4283 74.3905 9.45996 74.3905 9.45996C74.454 9.52329 74.4858 9.58663 74.5493 9.64996C74.5493 9.64996 74.581 9.64996 74.6128 9.64996C74.5493 9.61829 74.5175 9.55496 74.5175 9.45996ZM74.3588 10.885C74.327 10.885 74.327 10.885 74.2953 10.9166C74.3588 10.98 74.4223 10.98 74.5175 10.98C74.454 11.0433 74.454 11.0433 74.3905 11.1066C74.5175 11.2966 74.6445 11.17 74.835 11.2333C74.708 11.2966 74.7398 11.3283 74.7398 11.4233C74.6763 11.4866 74.6763 11.455 74.7398 11.5183C74.708 11.5816 74.708 11.55 74.708 11.645C74.6445 11.645 74.6128 11.645 74.581 11.645C74.5493 11.6766 74.5493 11.7083 74.5493 11.74C74.6128 11.74 74.6763 11.7083 74.7398 11.7083C74.708 11.74 74.6445 11.7716 74.6128 11.7716C74.8033 12.2783 75.5335 11.645 75.851 11.645C75.851 11.4233 75.7558 11.075 75.5018 10.9483C75.5018 10.9483 75.5018 10.9166 75.47 10.9166C75.5653 10.885 75.5653 10.8216 75.6288 10.79V10.695C75.5018 10.5683 75.4065 10.5683 75.2795 10.41C75.1525 10.3466 75.0573 10.3783 74.962 10.4416C74.962 10.41 74.962 10.41 74.9938 10.3783C74.9303 10.3466 74.8985 10.3466 74.835 10.315C74.8033 10.3783 74.708 10.41 74.581 10.41C74.5493 10.5366 74.581 10.5366 74.5175 10.6C74.581 10.6633 74.6445 10.6316 74.7398 10.6316C74.708 10.7266 74.6763 10.695 74.6763 10.7583C74.5175 10.7583 74.3588 10.7583 74.2 10.7583C74.2953 10.885 74.2953 10.8216 74.3588 10.885Z" fill="#181616"/>
</svg>
