<svg width="115" height="25" viewBox="0 0 115 25" fill="none" xmlns="http://www.w3.org/2000/svg">
<path d="M114.083 11.0361V9.05127H111.612V5.96504L111.528 5.99069L109.207 6.69907L109.16 6.71301V9.05127H105.497V7.7485C105.497 7.14209 105.633 6.67785 105.901 6.36847C106.167 6.06257 106.548 5.90709 107.033 5.90709C107.382 5.90709 107.743 5.98911 108.107 6.15124L108.198 6.19177V4.10114L108.155 4.08562C107.816 3.96402 107.355 3.90259 106.782 3.90259C106.061 3.90259 105.406 4.05902 104.835 4.36935C104.263 4.67969 103.813 5.12302 103.499 5.68669C103.185 6.24972 103.026 6.89984 103.026 7.61931V9.05159H101.305V11.0365H103.026V19.3984H105.496V11.0365H109.16V16.3508C109.16 18.5392 110.195 19.6482 112.236 19.6482C112.572 19.6482 112.925 19.6086 113.285 19.532C113.652 19.4535 113.902 19.3743 114.049 19.2907L114.082 19.2714V17.2681L113.982 17.3343C113.847 17.4233 113.681 17.4968 113.485 17.5506C113.289 17.6057 113.124 17.6336 112.997 17.6336C112.519 17.6336 112.165 17.505 111.946 17.2514C111.724 16.9952 111.611 16.5474 111.611 15.9217V11.0368H114.083V11.0361H114.083ZM95.789 17.6329C94.8924 17.6329 94.1853 17.3365 93.6868 16.7523C93.1858 16.1652 92.9315 15.3286 92.9315 14.2649C92.9315 13.1676 93.1858 12.3095 93.6875 11.7116C94.1859 11.1182 94.886 10.817 95.7693 10.817C96.6256 10.817 97.3079 11.1045 97.7959 11.6726C98.2871 12.2433 98.5363 13.0954 98.5363 14.2053C98.5363 15.3292 98.302 16.1918 97.84 16.7697C97.3809 17.3422 96.6907 17.6329 95.789 17.6329ZM95.8995 8.80174C94.1885 8.80174 92.8299 9.30176 91.8605 10.2875C90.8925 11.274 90.4013 12.6388 90.4013 14.3447C90.4013 15.9644 90.8807 17.2672 91.8256 18.2172C92.7708 19.1666 94.0567 19.6482 95.648 19.6482C97.3069 19.6482 98.6382 19.1412 99.6069 18.1421C100.576 17.1431 101.066 15.7909 101.066 14.1252C101.066 12.4795 100.605 11.1669 99.6968 10.2236C98.7881 9.28023 97.5098 8.80174 95.8995 8.80174ZM86.4186 8.80174C85.2547 8.80174 84.2923 9.09846 83.5567 9.68397C82.8169 10.2727 82.4416 11.045 82.4416 11.9795C82.4416 12.4656 82.5222 12.8966 82.6816 13.2626C82.8429 13.63 83.0903 13.9533 83.4201 14.2243C83.7475 14.4938 84.2523 14.7753 84.9216 15.0622C85.4839 15.2931 85.9039 15.4885 86.1706 15.6424C86.431 15.7934 86.6164 15.9448 86.7205 16.0927C86.8215 16.2374 86.8729 16.4347 86.8729 16.6791C86.8729 17.3742 86.3513 17.7131 85.2775 17.7131C84.8794 17.7131 84.4241 17.6298 83.9269 17.4673C83.429 17.303 82.9632 17.068 82.5442 16.7669L82.4419 16.6943V19.0659L82.4791 19.0839C82.829 19.2451 83.2696 19.3809 83.7888 19.487C84.3072 19.5941 84.7784 19.6485 85.1877 19.6485C86.4503 19.6485 87.4673 19.3502 88.209 18.7609C88.9564 18.1684 89.3345 17.3783 89.3345 16.4106C89.3345 15.7139 89.131 15.1154 88.7294 14.6328C88.3306 14.1544 87.6378 13.7158 86.6723 13.3272C85.9033 13.0191 85.4102 12.7639 85.2077 12.5679C85.0124 12.3779 84.9117 12.1103 84.9117 11.7708C84.9117 11.4697 85.0353 11.229 85.287 11.0336C85.5414 10.8373 85.8947 10.7375 86.3389 10.7375C86.7507 10.7375 87.1717 10.8024 87.5902 10.9291C88.0086 11.0561 88.3766 11.2261 88.6827 11.4345L88.7837 11.5032V9.25299L88.7452 9.2362C88.4617 9.11524 88.0887 9.01169 87.6353 8.92746C87.1838 8.84386 86.7745 8.80174 86.4186 8.80174ZM76.0017 17.6329C75.1051 17.6329 74.3974 17.3365 73.9002 16.7523C73.3986 16.1652 73.1449 15.3286 73.1449 14.2649C73.1449 13.1676 73.3986 12.3095 73.9002 11.7116C74.3981 11.1182 75.0981 10.817 75.9821 10.817C76.8384 10.817 77.52 11.1045 78.0087 11.6726C78.4992 12.2433 78.7484 13.0954 78.7484 14.2053C78.7484 15.3292 78.5148 16.1918 78.0528 16.7697C77.5931 17.3422 76.9035 17.6329 76.0017 17.6329ZM76.1116 8.80174C74.4 8.80174 73.0414 9.30176 72.0733 10.2875C71.1046 11.274 70.6135 12.6388 70.6135 14.3447C70.6135 15.9651 71.0935 17.2672 72.0378 18.2172C72.983 19.1669 74.2695 19.6482 75.8608 19.6482C77.5191 19.6482 78.851 19.1412 79.8197 18.1421C80.7871 17.1431 81.2783 15.7909 81.2783 14.1252C81.2783 12.4795 80.8182 11.1669 79.9089 10.2236C79.0009 9.28023 77.7232 8.80174 76.1116 8.80174ZM66.8638 10.843V9.05096H64.4228V19.3977H66.8638V14.105C66.8638 13.2047 67.0686 12.4653 67.4721 11.9073C67.8709 11.3553 68.4024 11.0757 69.051 11.0757C69.2704 11.0757 69.5174 11.1118 69.7848 11.1834C70.0496 11.2546 70.2413 11.3316 70.3541 11.4127L70.4563 11.4868V9.03291L70.4166 9.01612C70.189 8.91986 69.8676 8.87109 69.4609 8.87109C68.8475 8.87109 68.2989 9.06742 67.8287 9.45439C67.4156 9.79449 67.1181 10.2609 66.8898 10.8423H66.8638V10.843ZM60.0531 8.80174C58.9339 8.80174 57.9347 9.04114 57.0857 9.51329C56.2342 9.98607 55.5767 10.6615 55.1287 11.5206C54.6829 12.3779 54.4565 13.3785 54.4565 14.4941C54.4565 15.472 54.6756 16.3688 55.1096 17.1598C55.5439 17.9515 56.1583 18.5712 56.9356 19.0006C57.7125 19.4297 58.6097 19.6476 59.6032 19.6476C60.7633 19.6476 61.753 19.4167 62.5467 18.9598L62.5791 18.9417V16.7121L62.4769 16.7859C62.1172 17.0474 61.7155 17.2558 61.2831 17.4062C60.8516 17.5563 60.4576 17.632 60.1128 17.632C59.1552 17.632 58.3868 17.3337 57.8296 16.7444C57.2699 16.1538 56.9864 15.326 56.9864 14.2836C56.9864 13.2344 57.2823 12.3848 57.8649 11.7578C58.4459 11.1327 59.2162 10.8157 60.1537 10.8157C60.9554 10.8157 61.7374 11.0865 62.4766 11.6213L62.5788 11.6954V9.34609L62.5458 9.32741C62.2673 9.17192 61.8886 9.04367 61.4164 8.94646C60.9484 8.85082 60.489 8.80174 60.0531 8.80174ZM52.7754 9.05127H50.3347V19.3984H52.7754V9.05127ZM51.58 4.64327C51.1783 4.64327 50.8284 4.77976 50.5408 5.04987C50.2515 5.32094 50.1049 5.6623 50.1049 6.06479C50.1049 6.46094 50.25 6.79597 50.5354 7.06007C50.8199 7.32322 51.1713 7.45622 51.58 7.45622C51.9889 7.45622 52.341 7.32323 52.6293 7.06039C52.9192 6.79629 53.0659 6.46125 53.0659 6.06479C53.0659 5.67624 52.923 5.33867 52.6414 5.06096C52.3597 4.78387 52.0026 4.64327 51.58 4.64327ZM45.4913 8.28779V19.3984H47.9817V4.95994H44.5353L40.1541 15.6842L35.9018 4.95994H32.3147V19.3984H34.655V8.28652H34.7353L39.2251 19.3977H40.9913L45.4109 8.28748L45.4913 8.28779Z" fill="#181616"/>
<path d="M12.3972 11.585H0.916992V0.13501H12.3968V11.585H12.3972Z" fill="#181616"/>
<path d="M25.0721 11.585H13.5923V0.13501H25.0721V11.585Z" fill="#181616"/>
<path d="M12.3969 24.2315H0.916748V12.7815H12.3966V24.2315H12.3969Z" fill="#181616"/>
<path d="M25.0721 24.2315H13.5923V12.7815H25.0721V24.2315Z" fill="#181616"/>
</svg>
