<svg width="44" height="44" viewBox="0 0 44 44" fill="none" xmlns="http://www.w3.org/2000/svg">
<g clip-path="url(#clip0)">
<path d="M26.6483 5.90735H35.5462L34.5323 1.77702C34.2252 0.525939 32.962 -0.239334 31.7109 0.0678066L25.7103 1.54078L26.6483 5.90735Z" fill="#E2C4FF"/>
<path d="M19.6726 3.02283L3.23728 7.05734C1.9862 7.36448 1.22092 8.62767 1.52798 9.87875L7.54188 34.3776V8.00884C7.54188 6.84816 8.48273 5.90732 9.6434 5.90732H19.053L19.6726 3.02283Z" fill="#E2C4FF"/>
<path d="M9.6434 40.1155C9.38877 40.1155 9.14479 40.0702 8.91895 39.9872L9.46774 42.223C9.77488 43.4741 11.0381 44.2394 12.2892 43.9322L27.8373 40.1155H9.6434Z" fill="#E2C4FF"/>
<path d="M42.4719 34.1211L38.1593 16.5528V37.5816L40.7627 36.9425C42.0138 36.6355 42.779 35.3723 42.4719 34.1211Z" fill="#E2C4FF"/>
<path d="M36.0579 5.04799H27.3427L26.6386 1.77051H27.6881C28.1626 1.77051 28.5474 1.38568 28.5474 0.911133C28.5474 0.436586 28.1626 0.0517578 27.6881 0.0517578H18.0132C17.5386 0.0517578 17.1538 0.436586 17.1538 0.911133C17.1538 1.38577 17.5386 1.77051 18.0132 1.77051H19.0627L18.3586 5.04799H9.64351C8.01087 5.04799 6.68262 6.37624 6.68262 8.00888V38.014C6.68262 39.6466 8.01087 40.9749 9.64351 40.9749H36.0579C37.6905 40.9749 39.0188 39.6466 39.0188 38.014V8.00888C39.0188 6.37624 37.6905 5.04799 36.0579 5.04799ZM27.6882 9.77327V12.0793H18.013V9.77327H27.6882ZM24.8806 1.77051L26.2306 8.05443H19.4707L20.8207 1.77051H24.8806ZM37.3 38.0141C37.3 38.699 36.7428 39.2562 36.0579 39.2562H9.64351C8.95859 39.2562 8.40137 38.699 8.40137 38.0141V8.00888C8.40137 7.32396 8.95859 6.76674 9.64351 6.76674H17.9894L17.7128 8.05443H17.1536C16.679 8.05443 16.2942 8.43926 16.2942 8.91381V12.9386C16.2942 13.4131 16.679 13.798 17.1536 13.798H21.9913V18.0608C21.9913 18.5354 22.3761 18.9202 22.8506 18.9202C23.3252 18.9202 23.71 18.5354 23.71 18.0608V13.798H28.5476C29.0222 13.798 29.407 13.4131 29.407 12.9386V8.91381C29.407 8.43926 29.0222 8.05443 28.5476 8.05443H27.9885L27.7119 6.76674H36.0578C36.7427 6.76674 37.2999 7.32396 37.2999 8.00888V38.0141H37.3Z" fill="#020288"/>
<path d="M32.3458 21.1407H13.3556C12.881 21.1407 12.4962 21.5254 12.4962 22C12.4962 22.4746 12.881 22.8594 13.3556 22.8594H32.3458C32.8203 22.8594 33.2052 22.4746 33.2052 22C33.2052 21.5254 32.8203 21.1407 32.3458 21.1407Z" fill="#020288"/>
<path d="M32.3458 27.17H13.3556C12.881 27.17 12.4962 27.5548 12.4962 28.0294C12.4962 28.5039 12.881 28.8887 13.3556 28.8887H32.3458C32.8203 28.8887 33.2052 28.5039 33.2052 28.0294C33.2052 27.5548 32.8203 27.17 32.3458 27.17Z" fill="#020288"/>
</g>
<defs>
<clipPath id="clip0">
<rect width="44" height="44" fill="white"/>
</clipPath>
</defs>
</svg>
