<svg width="42" height="44" viewBox="0 0 42 44" fill="none" xmlns="http://www.w3.org/2000/svg">
<path d="M25.6483 5.90735H34.5462L33.5323 1.77702C33.2252 0.525939 31.962 -0.239334 30.7109 0.0678066L24.7103 1.54078L25.6483 5.90735Z" fill="#E2C4FF"/>
<path d="M18.6726 3.02283L2.23728 7.05734C0.986197 7.36448 0.220924 8.62767 0.527979 9.87875L6.54188 34.3776V8.00884C6.54188 6.84816 7.48273 5.90732 8.6434 5.90732H18.053L18.6726 3.02283Z" fill="#E2C4FF"/>
<path d="M8.6434 40.1155C8.38877 40.1155 8.14479 40.0702 7.91895 39.9872L8.46774 42.223C8.77488 43.4741 10.0381 44.2394 11.2892 43.9322L26.8373 40.1155H8.6434Z" fill="#E2C4FF"/>
<path d="M41.4719 34.1211L37.1593 16.5527V37.5815L39.7627 36.9425C41.0138 36.6355 41.779 35.3723 41.4719 34.1211Z" fill="#E2C4FF"/>
<path d="M35.0579 5.04799H26.3427L25.6386 1.77051H26.6881C27.1626 1.77051 27.5474 1.38568 27.5474 0.911133C27.5474 0.436586 27.1626 0.0517578 26.6881 0.0517578H17.0132C16.5386 0.0517578 16.1538 0.436586 16.1538 0.911133C16.1538 1.38577 16.5386 1.77051 17.0132 1.77051H18.0627L17.3586 5.04799H8.64351C7.01087 5.04799 5.68262 6.37624 5.68262 8.00888V38.014C5.68262 39.6466 7.01087 40.9749 8.64351 40.9749H35.0579C36.6905 40.9749 38.0188 39.6466 38.0188 38.014V8.00888C38.0188 6.37624 36.6905 5.04799 35.0579 5.04799ZM26.6882 9.77327V12.0793H17.013V9.77327H26.6882ZM23.8806 1.77051L25.2306 8.05443H18.4707L19.8207 1.77051H23.8806ZM36.3 38.0141C36.3 38.699 35.7428 39.2562 35.0579 39.2562H8.64351C7.95859 39.2562 7.40137 38.699 7.40137 38.0141V8.00888C7.40137 7.32396 7.95859 6.76674 8.64351 6.76674H16.9894L16.7128 8.05443H16.1536C15.679 8.05443 15.2942 8.43926 15.2942 8.91381V12.9386C15.2942 13.4131 15.679 13.798 16.1536 13.798H20.9913V18.0608C20.9913 18.5354 21.3761 18.9202 21.8506 18.9202C22.3252 18.9202 22.71 18.5354 22.71 18.0608V13.798H27.5476C28.0222 13.798 28.407 13.4131 28.407 12.9386V8.91381C28.407 8.43926 28.0222 8.05443 27.5476 8.05443H26.9885L26.7119 6.76674H35.0578C35.7427 6.76674 36.2999 7.32396 36.2999 8.00888V38.0141H36.3Z" fill="#020288"/>
<path d="M31.3458 21.1406H12.3556C11.881 21.1406 11.4962 21.5254 11.4962 22C11.4962 22.4745 11.881 22.8594 12.3556 22.8594H31.3458C31.8203 22.8594 32.2052 22.4745 32.2052 22C32.2052 21.5254 31.8203 21.1406 31.3458 21.1406Z" fill="#020288"/>
<path d="M31.3458 27.17H12.3556C11.881 27.17 11.4962 27.5548 11.4962 28.0294C11.4962 28.5039 11.881 28.8887 12.3556 28.8887H31.3458C31.8203 28.8887 32.2052 28.5039 32.2052 28.0294C32.2052 27.5548 31.8203 27.17 31.3458 27.17Z" fill="#020288"/>
</svg>
