<svg width="24" height="24" viewBox="0 0 24 24" fill="none" xmlns="http://www.w3.org/2000/svg">
<path d="M5.5 10C5.77614 10 6 10.2239 6 10.5V18.5C6 18.7761 5.77614 19 5.5 19H2.5C2.22386 19 2 18.7761 2 18.5V10.5C2 10.2239 2.22386 10 2.5 10H5.5ZM9 21C8.46957 21 7.96086 20.7893 7.58579 20.4142C7.21071 20.0391 7 19.5304 7 19V10C7 9.45 7.22 8.95 7.59 8.59L13.8164 2.35409C14.0117 2.15858 14.3285 2.15845 14.5238 2.35382L15.23 3.06C15.5 3.33 15.67 3.7 15.67 4.11L15.64 4.43L14.8151 8.39824C14.7506 8.70867 14.9876 9 15.3046 9H20C21.11 9 22 9.9 22 11V13C22 13.26 21.95 13.5 21.86 13.73L18.84 19.78C18.54 20.5 17.83 21 17 21H9ZM9 18.5C9 18.7761 9.22386 19 9.5 19H16.7196C16.9097 19 17.0834 18.8922 17.1677 18.7218L19.9481 13.1048C19.9822 13.0359 20 12.96 20 12.883V11.5C20 11.2239 19.7761 11 19.5 11H12.8274C12.5094 11 12.2722 10.7071 12.3383 10.3961L12.9886 7.33419C13.0921 6.84698 12.4974 6.52456 12.1456 6.87716L9.14604 9.88362C9.05252 9.97736 9 10.1044 9 10.2368V18.5Z" fill="#B3328C"/>
</svg>
